<svg width="105" height="103" viewBox="0 0 105 103" fill="none" xmlns="http://www.w3.org/2000/svg">
<g clip-path="url(#clip0_84_452)">
<path d="M21.2511 55.9834C18.711 53.7712 14.9895 53.5352 12.2131 55.423L11.5338 43.4329C11.3565 40.38 8.83122 37.9908 5.77426 37.9908C2.7173 37.9908 0 40.5717 0 43.7573V61.6466C0 64.7585 0.900844 67.767 2.62869 70.3479L12.7595 85.6416C14.7679 88.6797 17.7954 90.9804 21.2511 92.1307L25.5338 93.5465C26.346 93.812 26.8924 94.5641 26.8924 95.4195V101.51C26.8924 102.322 27.557 102.985 28.3692 102.985C29.1814 102.985 29.846 102.322 29.846 101.51V95.4195C29.846 93.2958 28.4873 91.4081 26.4641 90.7444L22.1814 89.3286C19.346 88.3995 16.865 86.5117 15.2257 84.0193L5.09494 68.7257C3.70675 66.6167 2.96835 64.1685 2.96835 61.6466V43.7573C2.96835 42.2088 4.2384 40.9404 5.78903 40.9404C7.33966 40.9404 8.5211 42.1055 8.59494 43.5951L9.7173 63.3426C9.73207 63.6671 9.86498 63.9768 10.0717 64.2275L21.7384 77.5892C22.27 78.2086 23.2152 78.2676 23.8207 77.7367C24.4409 77.2058 24.5 76.2766 23.9684 75.6572L12.6414 62.679L12.4198 58.8593L13.8819 57.8711C15.5654 56.7355 17.7954 56.8683 19.2869 58.1661L34.0106 72.1619C39.7996 77.663 43.1224 85.4056 43.1224 93.3991V101.525C43.1224 102.336 43.7869 103 44.5992 103C45.4114 103 46.076 102.336 46.076 101.525V93.3991C46.076 84.6093 42.4135 76.0849 36.0485 70.0235L21.2806 55.9834H21.2511Z" fill="#398938"/>
<path d="M99.2253 38.0056C96.1683 38.0056 93.643 40.3948 93.4658 43.4476L92.7865 55.4377C89.9953 53.55 86.2886 53.7712 83.7042 56.0277L68.9806 70.0235C62.6008 76.0849 58.9531 84.6093 58.9531 93.3991V101.525C58.9531 102.336 59.6177 103 60.4299 103C61.2422 103 61.9067 102.336 61.9067 101.525V93.3991C61.9067 85.4057 65.2295 77.6777 71.0185 72.162L85.6979 58.2104C87.219 56.8683 89.4637 56.7356 91.1472 57.8859L92.6092 58.874L92.3877 62.6938L81.0607 75.672C80.5291 76.2914 80.5882 77.2205 81.2084 77.7515C81.8287 78.2824 82.759 78.2234 83.2907 77.604L94.9574 64.2423C95.1789 63.9916 95.297 63.6819 95.3118 63.3574L96.4341 43.6099C96.5228 42.1203 97.7485 40.9552 99.24 40.9552C100.732 40.9552 102.061 42.2235 102.061 43.7721V61.6614C102.061 64.1833 101.322 66.6315 99.9341 68.7404L89.8033 84.0341C88.1493 86.5265 85.6831 88.4143 82.8476 89.3434L78.5649 90.7592C76.5417 91.4229 75.1831 93.3106 75.1831 95.4343V101.525C75.1831 102.336 75.8476 103 76.6599 103C77.4721 103 78.1367 102.336 78.1367 101.525V95.4343C78.1367 94.5789 78.6831 93.8268 79.4953 93.5613L83.778 92.1455C87.2485 91.0099 90.2611 88.6945 92.2696 85.6564L102.4 70.3627C104.113 67.7818 105.029 64.7585 105.029 61.6614V43.7721C105.029 40.6013 102.445 38.0056 99.2548 38.0056H99.2253Z" fill="#398938"/>
<path d="M31.3675 50.8658V58.7413C31.3675 59.5524 32.0321 60.2161 32.8443 60.2161C33.6565 60.2161 34.3211 59.5524 34.3211 58.7413V53.373C38.8844 56.6175 43.0785 57.0747 43.4625 57.1042H72.2009C75.8042 57.1042 78.743 54.1694 78.743 50.5709C78.743 46.9724 75.8042 44.0375 72.2009 44.0375H64.8169C64.8169 44.0375 64.7135 44.0375 64.6692 44.0375C64.5363 44.0375 56.5764 44.8191 49.1038 42.7839V35.8081L56.6798 28.3751C58.2156 28.8471 59.7219 29.4517 60.992 30.2334L53.7705 40.9994C53.3127 41.6778 53.5047 42.5922 54.1692 43.0494C54.4203 43.2116 54.7009 43.3001 54.9962 43.3001C55.4688 43.3001 55.9414 43.0641 56.2219 42.6512L63.665 31.5607C64.7873 36.0293 68.8338 39.3624 73.6629 39.3624C74.8591 39.3624 76.011 39.1412 77.0743 38.7725L75.3021 42.3857C74.9477 43.1231 75.243 43.9933 75.9814 44.362C76.1882 44.4652 76.4097 44.5094 76.6312 44.5094C77.1776 44.5094 77.7093 44.1997 77.9603 43.6835L82.6122 34.1563C82.8338 33.7581 83.0405 33.3452 83.2177 32.9175C83.2177 32.9175 83.2177 32.888 83.2177 32.8733C83.6903 31.6934 83.9561 30.4104 83.9561 29.0535C83.9561 23.3756 79.3338 18.7447 73.6333 18.7447C71.3 18.7447 69.1439 19.5411 67.416 20.8537C67.4013 20.8537 67.3717 20.8831 67.357 20.8979C65.6734 22.1957 64.4034 23.9802 63.7684 26.0597L62.6017 27.8C60.0616 26.2219 56.8422 25.2633 53.9772 24.6734C57.7135 22.3137 60.2241 18.1843 60.2536 13.4502C60.2536 13.4354 60.2536 13.4059 60.2536 13.3912C60.2536 6.01717 54.243 0.02948 46.8738 0.02948C39.5046 0.02948 33.4941 6.03191 33.4941 13.3912C33.4941 13.4354 33.4941 13.4649 33.4941 13.5091C33.5384 17.4911 35.3253 21.0454 38.1165 23.4788C33.5975 23.759 28.5025 24.8504 25.6819 28.0654C23.4519 30.6316 22.9498 34.0826 24.2051 38.33C25.9182 44.1112 28.5468 48.1079 31.3232 50.8806L31.3675 50.8658ZM81.0321 29.0683C81.0321 30.0417 80.8401 30.956 80.4857 31.8114L80.2346 32.3276C79.0236 34.7463 76.5574 36.4275 73.6629 36.4275C69.6017 36.4275 66.2937 33.124 66.2937 29.0683C66.2937 28.4489 66.3971 27.8442 66.5447 27.269L69.2768 23.1986C70.5025 22.2842 72.0089 21.7238 73.6629 21.7238C77.7241 21.7238 81.0321 25.0273 81.0321 29.083V29.0683ZM57.1819 11.6509C55.8232 11.3264 54.7304 10.6923 53.8738 9.70417C52.4414 8.06714 51.9688 5.81069 51.8211 4.18842C54.6122 5.67796 56.6502 8.42109 57.1966 11.6509H57.1819ZM46.9034 2.96433C47.0363 2.96433 47.1692 2.97908 47.3021 2.97908C46.7557 5.4125 44.6587 10.3826 36.6249 11.6804C37.4371 6.73982 41.7346 2.96433 46.9034 2.96433ZM36.5658 14.689C44.1861 13.6419 47.627 9.70417 49.1776 6.43011C49.5468 8.14088 50.2557 10.0434 51.6291 11.6214C53.0616 13.2584 54.9371 14.276 57.2409 14.6742C56.6059 19.777 52.2494 23.7443 46.9772 23.7885C46.6523 23.7443 45.8253 23.641 44.6587 23.5525C40.3907 22.6234 37.1122 19.0691 36.5511 14.689H36.5658ZM46.8148 26.7381C46.8148 26.7381 46.8443 26.7381 46.8591 26.7381C46.9181 26.7381 49.8717 26.8561 53.3274 27.5492L47.5975 33.1682L40.0806 26.3399C41.5574 26.3104 42.9456 26.3694 44.1565 26.4579C45.0131 26.6349 45.8992 26.7234 46.8 26.7381H46.8148ZM27.9561 29.9974C29.6544 28.0507 32.7557 27.0626 36.0342 26.6349L46.1798 35.8524V41.8253C42.9603 40.5422 40.0511 38.5955 38.2346 35.6606C37.8063 34.9675 36.8907 34.761 36.1966 35.1887C35.5025 35.6164 35.2958 36.5308 35.7241 37.2239C42.9751 48.9043 63.2515 47.1788 64.9203 47.0166H72.2304C74.2093 47.0166 75.819 48.6241 75.819 50.6004C75.819 52.5766 74.2093 54.1841 72.2304 54.1841H43.6249C43.3148 54.1546 38.53 53.5942 33.9224 49.2288C33.9076 49.2141 33.8928 49.1846 33.8633 49.1698C31.2641 46.6921 28.7241 43.0051 27.0848 37.4894C26.1249 34.2301 26.4055 31.7819 27.9561 30.0122V29.9974Z" fill="#398938"/>
<path d="M68.3459 62.0153C68.8037 61.3369 68.6265 60.4225 67.962 59.9653C67.2826 59.5081 66.367 59.6851 65.9092 60.3488C64.6687 62.1775 60.5042 66.8969 56.2805 66.8969C51.5105 66.8969 49.3396 60.8355 49.2953 60.7027C49.0295 59.9358 48.2025 59.5229 47.4198 59.7884C46.6518 60.0538 46.2383 60.8945 46.4894 61.6613C46.6075 62.0006 49.3544 69.8612 56.2658 69.8612C63.1772 69.8612 68.1244 62.3398 68.3312 62.03L68.3459 62.0153Z" fill="#398938"/>
</g>
<defs>
<clipPath id="clip0_84_452">
<rect width="105" height="103" fill="white"/>
</clipPath>
</defs>
</svg>
