<svg width="103" height="86" viewBox="0 0 103 86" fill="none" xmlns="http://www.w3.org/2000/svg">
<g clip-path="url(#clip0_84_422)">
<path d="M53.6081 10.8301C52.4711 12.0092 50.5419 12.0092 49.3921 10.8301C30.2536 -8.95887 1.9165 6.97228 1.9165 31.6572C1.9165 53.8557 39.2224 77.541 49.111 83.4238C50.593 84.3082 52.3944 84.3082 53.8764 83.4238C63.7651 77.5538 101.071 53.8686 101.071 31.6572C101.071 6.9851 72.7338 -8.94605 53.5954 10.8429L53.6081 10.8301Z" stroke="#398938" stroke-width="3" stroke-miterlimit="10"/>
<path d="M47.5141 45.9991V54.2402C47.5141 56.4447 49.2899 58.239 51.5002 58.239C53.7104 58.239 55.4863 56.4575 55.4863 54.2402V45.9991H63.7012C65.8987 45.9991 67.6873 44.2176 67.6873 42.0003C67.6873 39.783 65.9115 38.0015 63.7012 38.0015H55.4863V29.7603C55.4863 27.5559 53.7104 25.7615 51.5002 25.7615C49.2899 25.7615 47.5141 27.5431 47.5141 29.7603V38.0015H39.2991C37.1016 38.0015 35.313 39.783 35.313 42.0003C35.313 44.2176 37.0889 45.9991 39.2991 45.9991" fill="#398938"/>
</g>
<defs>
<clipPath id="clip0_84_422">
<rect width="103" height="86" fill="white"/>
</clipPath>
</defs>
</svg>
