<svg width="103" height="102" viewBox="0 0 103 102" fill="none" xmlns="http://www.w3.org/2000/svg">
<g clip-path="url(#clip0_84_462)">
<path d="M78.2501 66.2628C82.3678 62.7153 90.0023 53.5037 89.5041 34.1168C88.7714 5.66425 60.3728 2.27739 57.5007 2.01462C47.5509 -1.62042 36.9271 -0.291951 28.3108 5.66425C18.7127 12.292 12.9978 23.5037 12.9978 35.6497C12.9978 53.4015 20.6616 62.7153 24.5887 66.3212C2.34462 74.2628 0.0293493 99.6351 4.21954e-05 99.9416C-0.0585721 100.745 0.542225 101.445 1.34817 101.518C1.39213 101.518 1.42144 101.518 1.4654 101.518C2.22739 101.518 2.85749 100.934 2.93076 100.175C3.01868 99.0219 5.17276 75.8248 26.1567 68.8613V79.2993C16.0311 80.8759 14.8881 98.5402 14.8441 99.3285C14.8148 99.7226 14.9613 100.117 15.2398 100.409C15.5182 100.701 15.8992 100.861 16.3095 100.861H21.7899C22.5959 100.861 23.2553 100.204 23.2553 99.4015C23.2553 98.5985 22.5959 97.9416 21.7899 97.9416H17.936C18.4635 93.6788 20.5737 82.0876 27.6367 82.0876C34.6997 82.0876 36.8391 93.6788 37.352 97.9416H33.4835C32.6775 97.9416 32.0181 98.5985 32.0181 99.4015C32.0181 100.204 32.6775 100.861 33.4835 100.861H38.9639C39.3742 100.861 39.7552 100.701 40.0336 100.409C40.312 100.117 40.4586 99.7226 40.4293 99.3285C40.3853 98.5402 39.2277 80.8759 29.102 79.2993V68.0292C31.8716 67.3723 34.9195 66.9635 38.3045 66.9051L50.3937 89.2701C50.6428 89.7372 51.141 90.0438 51.6832 90.0438C52.2254 90.0438 52.7236 89.7372 52.9727 89.2555L64.7542 66.9051C67.9926 66.9635 70.9234 67.3431 73.605 67.9562V87.2701C70.176 87.9562 67.597 90.9635 67.597 94.5694C67.597 98.6715 70.9527 102.015 75.0703 102.015C79.188 102.015 82.5436 98.6715 82.5436 94.5694C82.5436 90.9635 79.95 87.9562 76.5357 87.2701V68.7737C97.798 75.6059 99.996 99.0365 100.099 100.19C100.157 100.993 100.861 101.591 101.681 101.533C102.487 101.474 103.088 100.759 103.029 99.9562C103 99.6497 100.67 74.1606 78.2941 66.2774L78.2501 66.2628ZM79.5836 94.5548C79.5836 97.0511 77.5468 99.0803 75.041 99.0803C72.5352 99.0803 70.4984 97.0511 70.4984 94.5548C70.4984 92.0584 72.5352 90.0292 75.041 90.0292C77.5468 90.0292 79.5836 92.0584 79.5836 94.5548ZM86.5734 34.2044C86.8958 46.7591 83.5401 54.6132 80.6826 58.9927C78.2355 62.7299 75.7297 64.6132 74.7772 65.2555C72.3154 64.6424 69.6631 64.2336 66.7764 64.073C72.3301 60.3358 75.8909 54.6132 75.8909 48.2044C75.8909 48.073 75.8763 47.9416 75.8616 47.8248C76.7994 47.2993 81.8842 44.2628 81.8842 39.927C81.8842 35.0365 78.7337 33.6059 68.7546 29.8248C62.688 27.5183 60.0211 16.2336 59.0686 8.51097C59.0979 7.1825 59.0247 6.05841 58.9367 5.1679C61.5744 5.56206 66.6592 6.64235 71.7293 9.37228C81.2981 14.5256 86.295 22.8905 86.5734 34.2482V34.2044ZM30.0545 48.1898C30.0545 38.5548 39.6673 30.7153 51.4927 30.7153C63.3181 30.7153 72.9309 38.5548 72.9309 48.1898C72.9309 57.8248 63.3181 65.6643 51.4927 65.6643C39.6673 65.6643 30.0545 57.8248 30.0545 48.1898ZM27.5048 44.7299C25.9955 44.1022 23.8414 42.657 24.0026 39.5037C24.1931 35.7664 25.8636 35.4161 31.1389 34.8467C31.8569 34.7737 32.6189 34.6861 33.4102 34.584C30.4062 37.3869 28.3108 40.8613 27.5195 44.7299H27.5048ZM57.5446 16.6132C59.1419 23.2847 62.1459 30.4234 67.7142 32.5256C78.1183 36.4818 78.9535 37.2555 78.9535 39.8978C78.9535 41.7226 76.9753 43.5329 75.4806 44.5694C73.4291 35.0365 63.4793 27.781 51.5074 27.781C50.8186 27.781 50.1299 27.8248 49.4559 27.8686C53.7494 24.2774 56.1965 20.3066 57.5446 16.5986V16.6132ZM15.9285 35.6497C15.9285 24.4672 21.1891 14.146 29.9813 8.05841C37.7037 2.71535 46.8182 1.47447 55.7569 4.51097C55.8155 5.44527 55.9327 6.93433 56.1525 8.75914C55.9327 14.2774 53.5882 23.2409 41.8653 29.4453C37.733 31.1971 33.8938 31.6059 30.8165 31.927C25.9662 32.438 21.3943 32.9343 21.0719 39.3431C20.8228 44.3358 24.4569 46.8175 27.1531 47.708C27.1531 47.8686 27.1238 48.0292 27.1238 48.1898C27.1238 54.5986 30.6846 60.3212 36.2383 64.0584C33.2344 64.2336 30.4795 64.6716 27.9444 65.3139C25.7171 63.5913 15.9285 54.9489 15.9285 35.6497ZM51.6393 85.4599L41.5429 66.7737C44.5909 67.9124 47.9465 68.5694 51.4927 68.5694C55.0389 68.5694 58.4239 67.9124 61.4865 66.7591L51.6393 85.4453V85.4599Z" fill="#398938"/>
<path d="M58.8929 52.2774C58.5119 51.562 57.618 51.2993 56.9146 51.6788C56.2406 52.0438 54.2916 52.6569 51.3023 52.6715C51.2583 52.6715 51.1997 52.6715 51.1558 52.6715C47.5656 52.6715 45.7779 51.781 45.5874 51.6788C44.884 51.2993 43.9902 51.562 43.6092 52.2774C43.2282 52.9927 43.4919 53.8686 44.21 54.2482C44.8108 54.5693 47.0528 55.5912 51.1558 55.5912C51.2144 55.5912 51.273 55.5912 51.3316 55.5912C54.658 55.562 57.1051 54.8905 58.3067 54.2482C59.0247 53.8686 59.2885 52.9781 58.9075 52.2774H58.8929Z" fill="#398938"/>
<path d="M47.9172 40.3942C47.9172 39.5913 47.2578 38.9343 46.4518 38.9343H38.407C37.6011 38.9343 36.9417 39.5913 36.9417 40.3942C36.9417 41.1971 37.6011 41.854 38.407 41.854H46.4518C47.2578 41.854 47.9172 41.1971 47.9172 40.3942Z" fill="#398938"/>
<path d="M56.4456 41.854H64.4904C65.2963 41.854 65.9558 41.1971 65.9558 40.3942C65.9558 39.5913 65.2963 38.9343 64.4904 38.9343H56.4456C55.6396 38.9343 54.9802 39.5913 54.9802 40.3942C54.9802 41.1971 55.6396 41.854 56.4456 41.854Z" fill="#398938"/>
<path d="M26.0249 27.3723C26.1274 27.3869 26.2154 27.4015 26.3179 27.4015C27.0067 27.4015 27.6075 26.9197 27.754 26.2336C28.1936 24.0292 29.8055 18.4526 35.154 14.4964C39.5062 11.2847 44.1074 10.7591 46.4813 10.7445C47.2872 10.7445 47.9466 10.073 47.932 9.27008C47.932 8.46716 47.2579 7.83943 46.452 7.82483C43.7264 7.85403 38.4218 8.45257 33.4103 12.1606C27.2411 16.7153 25.3948 23.1241 24.8819 25.6642C24.7207 26.4526 25.2336 27.2263 26.0395 27.3869L26.0249 27.3723Z" fill="#398938"/>
<path d="M69.0183 22.3212C70.9232 24.73 73.2532 26.7008 75.9641 28.1898C76.1839 28.3212 76.433 28.3796 76.6674 28.3796C77.1803 28.3796 77.6785 28.1022 77.957 27.6205C78.3526 26.9198 78.0888 26.0292 77.3855 25.6351C75.0262 24.3358 72.9894 22.6132 71.3335 20.511C69.5312 18.219 68.2123 15.5183 67.5529 12.6716C67.3771 11.8833 66.5711 11.4015 65.7945 11.5767C65.0032 11.7665 64.5196 12.5402 64.6955 13.3285C65.4575 16.584 66.9521 19.6935 69.0329 22.3212H69.0183Z" fill="#398938"/>
</g>
<defs>
<clipPath id="clip0_84_462">
<rect width="103" height="102" fill="white"/>
</clipPath>
</defs>
</svg>
