<svg width="103" height="102" viewBox="0 0 103 102" fill="none" xmlns="http://www.w3.org/2000/svg">
<g clip-path="url(#clip0_84_441)">
<path d="M93.0942 0H9.90579C4.4475 0 0 4.45617 0 9.92511V70.4162C0 75.8996 4.4475 80.3413 9.90579 80.3413H35.9699V86.9098H31.0314C27.8835 86.9098 25.3276 89.4706 25.3276 92.6247V99.1932C25.3276 100.741 26.5839 102 28.129 102H74.6111C76.1562 102 77.4125 100.741 77.4125 99.1932V92.6247C77.4125 89.4706 74.8566 86.9098 71.7087 86.9098H66.7702V80.3413H93.1087C98.5814 80.3413 103.014 75.8851 103.014 70.4162V9.92511C103.014 4.4417 98.5669 0 93.1087 0H93.0942ZM71.6942 89.8179C73.2538 89.8179 74.51 91.0911 74.51 92.6391L74.5967 99.1064H30.3672V99.1932H28.2156V92.6391C28.2156 91.0766 29.4863 89.8179 31.0314 89.8179H38.8578V80.3557H63.8534V89.8179H71.6798H71.6942ZM100.126 70.4306C100.126 74.3081 96.9786 77.4621 93.1087 77.4621H9.90579C6.03589 77.4621 2.88799 74.3081 2.88799 70.4306V9.92511C2.88799 6.04766 6.03589 2.89362 9.90579 2.89362H93.0942C96.9641 2.89362 100.112 6.04766 100.112 9.92511V70.4162L100.126 70.4306Z" fill="#398938"/>
<path d="M85.5133 8.91235H17.4868C12.0141 8.91235 7.58105 13.3685 7.58105 18.8375V54.4579C7.58105 59.9413 12.0286 64.383 17.4868 64.383H85.5133C90.9861 64.383 95.4191 59.9268 95.4191 54.4579V18.8375C95.4191 13.3541 90.9716 8.91235 85.5133 8.91235ZM44.2585 37.8051C45.8902 39.1941 46.8143 41.1762 46.8143 43.2306C46.8143 47.2672 43.3343 50.566 39.0457 50.566C35.0169 50.566 31.6091 47.9762 31.0893 44.5617L30.9015 43.3319H10.469V30.7013H31.1903L31.3347 29.4136C31.7535 25.6664 35.0747 22.8451 39.0601 22.8451C43.3488 22.8451 46.8288 26.1294 46.8288 30.1804C46.8288 32.2349 45.8902 34.217 44.2729 35.606L42.9878 36.7055L44.2729 37.8051H44.2585ZM58.7417 35.606C57.11 34.217 56.1858 32.2349 56.1858 30.1804C56.1858 26.1438 59.6659 22.8451 63.9545 22.8451C67.9399 22.8451 71.2611 25.6664 71.6799 29.4136L71.8243 30.7013H92.5456V43.3319H72.0986L71.9109 44.5617C71.4055 47.9907 67.9833 50.566 63.9545 50.566C59.6659 50.566 56.1858 47.2817 56.1858 43.2306C56.1858 41.1762 57.1244 39.1941 58.7417 37.8051L60.0269 36.7055L58.7417 35.606ZM92.5311 27.8077H74.308C73.1816 23.2502 68.9507 19.9515 63.9401 19.9515C58.063 19.9515 53.2834 24.5379 53.2834 30.1804C53.2834 32.5677 54.1643 34.8826 55.7526 36.7055C54.1787 38.5285 53.2834 40.8434 53.2834 43.2306C53.2834 48.8732 58.063 53.4596 63.9401 53.4596C68.9074 53.4596 73.2105 50.4213 74.4668 46.2111H92.5167V54.4724C92.5167 58.3498 89.3688 61.5038 85.4989 61.5038H17.4868C13.6169 61.5038 10.469 58.3498 10.469 54.4724V46.2111H28.5189C29.7752 50.4213 34.0783 53.4596 39.0457 53.4596C44.9227 53.4596 49.7023 48.8732 49.7023 43.2306C49.7023 40.8434 48.8215 38.5285 47.2331 36.7055C48.807 34.8826 49.7023 32.5677 49.7023 30.1804C49.7023 24.5379 44.9227 19.9515 39.0457 19.9515C34.035 19.9515 29.8041 23.2502 28.6778 27.8077H10.469V18.8519C10.469 14.9745 13.6169 11.8204 17.4868 11.8204H85.5133C89.3832 11.8204 92.5311 14.9745 92.5311 18.8519V27.8077Z" fill="#398938"/>
<path d="M79.1454 68.2894C77.4848 68.2894 76.1418 69.6349 76.1418 71.2987C76.1418 72.9626 77.4848 74.3081 79.1454 74.3081C80.8059 74.3081 82.1489 72.9626 82.1489 71.2987C82.1489 69.6349 80.8059 68.2894 79.1454 68.2894Z" fill="#398938"/>
<path d="M90.1629 74.2936C91.8217 74.2936 93.1664 72.9463 93.1664 71.2843C93.1664 69.6222 91.8217 68.2749 90.1629 68.2749C88.5041 68.2749 87.1594 69.6222 87.1594 71.2843C87.1594 72.9463 88.5041 74.2936 90.1629 74.2936Z" fill="#398938"/>
<path d="M68.1131 74.2936C69.7719 74.2936 71.1166 72.9463 71.1166 71.2843C71.1166 69.6222 69.7719 68.2749 68.1131 68.2749C66.4543 68.2749 65.1096 69.6222 65.1096 71.2843C65.1096 72.9463 66.4543 74.2936 68.1131 74.2936Z" fill="#398938"/>
</g>
<defs>
<clipPath id="clip0_84_441">
<rect width="103" height="102" fill="white"/>
</clipPath>
</defs>
</svg>
