<svg width="83" height="105" viewBox="0 0 83 105" fill="none" xmlns="http://www.w3.org/2000/svg">
<g clip-path="url(#clip0_84_429)">
<path d="M77.2261 19.0171H73.3618V18.6606C73.3618 15.5257 70.7755 12.9703 67.6029 12.9703H56.0551C55.8596 10.8457 55.0928 6.95314 52.1757 3.96686C49.6947 1.42629 46.2514 0.104 41.9511 0.0148571C41.921 0.0148571 41.8909 0 41.8609 0C41.8007 0 41.7406 0 41.6804 0C41.6203 0 41.5601 0 41.5 0C41.4699 0 41.4399 0.0148571 41.4098 0.0148571C37.1094 0.104 33.6661 1.42629 31.1851 3.952C28.2681 6.95314 27.5013 10.8309 27.3058 12.9554H15.758C12.5853 12.9554 9.99909 15.5109 9.99909 18.6457V19.0023H5.75888C2.58623 19.0023 0 21.5577 0 24.7074V98.2949C0 101.445 2.58623 104 5.75888 104H77.2411C80.4138 104 83 101.445 83 98.2949V24.7223C83 21.5726 80.4138 19.0171 77.2411 19.0171H77.2261ZM15.7429 15.9417H28.8545C29.6815 15.9417 30.3582 15.2731 30.3582 14.456C30.3582 14.248 30.313 14.0549 30.2379 13.8766C30.298 12.5097 30.704 8.736 33.3353 6.01714C35.275 4.02629 38.0717 3.016 41.6654 2.97143C45.244 3.00114 48.0408 4.02629 49.9804 6.00229C52.6118 8.69143 53.0328 12.5097 53.0929 13.8766C53.0178 14.0549 52.9727 14.248 52.9727 14.4411C52.9727 15.2583 53.6493 15.9269 54.4763 15.9269H67.5879C69.1065 15.9269 70.3395 17.1451 70.3395 18.6457V20.4583C70.3395 20.4583 70.3395 20.4731 70.3395 20.488C70.3395 20.5029 70.3395 20.5029 70.3395 20.5177V23.9497C70.3395 25.4503 69.1065 26.6686 67.5879 26.6686H15.7429C14.2243 26.6686 12.9913 25.4503 12.9913 23.9497V20.5029V18.6754C12.9913 17.1749 14.2243 15.9566 15.7429 15.9566V15.9417ZM79.9777 98.3097C79.9777 99.8103 78.7447 101.043 77.2261 101.043H5.74384C4.22518 101.043 2.99221 99.8103 2.99221 98.3097V24.7223C2.99221 23.2217 4.22518 21.9886 5.74384 21.9886H9.98406V23.9497C9.98406 27.0846 12.5703 29.64 15.7429 29.64H67.5879C70.7605 29.64 73.3467 27.0846 73.3467 23.9497V21.9886H77.2111C78.7297 21.9886 79.9627 23.2217 79.9627 24.7223V98.3097H79.9777Z" fill="#398938"/>
<path d="M41.5894 19.952C45.4888 19.952 48.6534 16.7725 48.6534 12.888C48.6534 9.00358 45.4888 5.82404 41.5894 5.82404C37.6899 5.82404 34.5254 8.98858 34.5254 12.888C34.5254 16.7875 37.7049 19.952 41.5894 19.952ZM41.5894 8.80861C43.8391 8.80861 45.6538 10.6383 45.6538 12.873C45.6538 15.1077 43.8241 16.9374 41.5894 16.9374C39.3547 16.9374 37.525 15.1077 37.525 12.873C37.525 10.6383 39.3547 8.80861 41.5894 8.80861Z" fill="#398938"/>
<path d="M56.0626 40.0342C51.0534 38.0094 45.6541 39.2393 41.5897 43.3187C37.5253 39.2243 32.1261 37.9945 27.1168 40.0342C21.7325 42.2088 18.1331 47.7131 18.1331 53.6972C18.1331 64.2257 34.7057 74.8442 39.775 77.8438C40.3299 78.1737 40.9598 78.3387 41.5897 78.3387C42.2196 78.3387 42.8495 78.1737 43.4044 77.8438C48.4887 74.8442 65.0463 64.2107 65.0463 53.6972C65.0463 47.6981 61.4319 42.2088 56.0626 40.0342ZM41.8747 75.2641C41.6947 75.3691 41.4697 75.3691 41.2897 75.2641C37.9152 73.2694 21.1176 62.8609 21.1176 53.6972C21.1176 48.9129 23.9822 44.5335 28.2416 42.8088C29.4864 42.3138 30.7313 42.0589 31.9761 42.0589C34.7057 42.0589 37.3453 43.2437 39.58 45.5534C40.6298 46.6332 42.5496 46.6332 43.5994 45.5534C46.854 42.2088 50.9784 41.204 54.9378 42.8088C59.1972 44.5335 62.0618 48.9129 62.0618 53.6972C62.0618 62.8609 45.2642 73.2694 41.8897 75.2641H41.8747Z" fill="#398938"/>
<path d="M47.9487 50.6676L40.7647 58.2865L37.1353 54.1921C36.5803 53.5772 35.6355 53.5172 35.0206 54.0721C34.4056 54.627 34.3457 55.5719 34.9006 56.1868L39.6249 61.511C39.9099 61.826 40.2998 62.006 40.7197 62.021H40.7497C41.1547 62.021 41.5596 61.856 41.8446 61.556L50.1534 52.7373C50.7233 52.1374 50.6933 51.1925 50.0934 50.6226C49.4935 50.0527 48.5486 50.0827 47.9787 50.6826L47.9487 50.6676Z" fill="#398938"/>
<path d="M57.5023 84.3978H25.6619C24.837 84.3978 24.1621 85.0727 24.1621 85.8976C24.1621 86.7225 24.837 87.3974 25.6619 87.3974H57.5023C58.3272 87.3974 59.0021 86.7225 59.0021 85.8976C59.0021 85.0727 58.3272 84.3978 57.5023 84.3978Z" fill="#398938"/>
<path d="M49.9738 90.4569H33.1912C32.3663 90.4569 31.6914 91.1318 31.6914 91.9567C31.6914 92.7816 32.3663 93.4565 33.1912 93.4565H49.9738C50.7987 93.4565 51.4736 92.7816 51.4736 91.9567C51.4736 91.1318 50.7987 90.4569 49.9738 90.4569Z" fill="#398938"/>
</g>
<defs>
<clipPath id="clip0_84_429">
<rect width="82.7882" height="105" fill="white"/>
</clipPath>
</defs>
</svg>
