<svg width="5" height="7" viewBox="0 0 5 7" fill="none" xmlns="http://www.w3.org/2000/svg">
<path d="M4.30469 4.03578L1.40625 6.93422C1.35677 6.9837 1.29818 7.00844 1.23047 7.00844C1.16276 7.00844 1.10417 6.9837 1.05469 6.93422L0.40625 6.28578C0.356771 6.2363 0.332031 6.17771 0.332031 6.11C0.332031 6.04229 0.356771 5.9837 0.40625 5.93422L2.48047 3.86L0.40625 1.78578C0.356771 1.7363 0.332031 1.67771 0.332031 1.61C0.332031 1.54229 0.356771 1.4837 0.40625 1.43422L1.05469 0.785782C1.10417 0.736303 1.16276 0.711563 1.23047 0.711563C1.29818 0.711563 1.35677 0.736303 1.40625 0.785782L4.30469 3.68422C4.35417 3.7337 4.37891 3.79229 4.37891 3.86C4.37891 3.92771 4.35417 3.9863 4.30469 4.03578Z" fill="#2E2E2F"/>
</svg>
