<svg width="26" height="25" viewBox="0 0 26 25" fill="none" xmlns="http://www.w3.org/2000/svg">
<path d="M11.6036 24.5484C11.2818 24.5466 10.9634 24.4851 10.6656 24.3672C10.3489 24.2437 10.0617 24.0587 9.82186 23.8238L0.87803 15.189C0.638593 14.963 0.452087 14.6901 0.331079 14.3887C0.218293 14.1045 0.160364 13.8027 0.160156 13.4983C0.160156 13.1964 0.217686 12.8944 0.331912 12.5925C0.446972 12.2906 0.629567 12.0193 0.878864 11.7778L11.8854 1.11974C12.1147 0.898334 12.3857 0.722015 12.6992 0.591588C13.0044 0.462282 13.3339 0.395395 13.6672 0.395142H22.6402C23.3289 0.395142 23.9175 0.631843 24.4078 1.10444C24.8972 1.57784 25.1415 2.14625 25.1415 2.81046V11.475C25.1427 11.7886 25.0799 12.0994 24.9565 12.3895C24.8332 12.6796 24.6518 12.9434 24.4228 13.1658L13.3854 23.8238C13.1352 24.0653 12.8543 24.2465 12.5416 24.3672C12.2439 24.4851 11.9254 24.5466 11.6036 24.5484ZM11.6036 22.133L22.6402 11.4452V2.81046H13.6989L2.66146 13.4983L11.6036 22.133ZM19.5136 7.64111C19.7607 7.64541 20.0061 7.60076 20.2347 7.50992C20.4633 7.41909 20.6702 7.28399 20.8426 7.11296C21.0197 6.94647 21.1596 6.7467 21.2537 6.52598C21.3478 6.30526 21.394 6.06826 21.3895 5.82962C21.394 5.59097 21.3478 5.35398 21.2537 5.13326C21.1596 4.91253 21.0197 4.71277 20.8426 4.54628C20.6702 4.37525 20.4633 4.24015 20.2347 4.14931C20.0061 4.05847 19.7607 4.01383 19.5136 4.01813C19.2666 4.01394 19.0213 4.05864 18.7929 4.14947C18.5644 4.2403 18.3577 4.37535 18.1854 4.54628C18.0081 4.7127 17.868 4.91243 17.7738 5.13316C17.6796 5.35388 17.6332 5.59091 17.6376 5.82962C17.6376 6.33281 17.821 6.76032 18.1854 7.11296C18.3577 7.28389 18.5644 7.41893 18.7929 7.50976C19.0213 7.6006 19.2666 7.6453 19.5136 7.64111Z" fill="#E31E24"/>
</svg>
