<svg width="14" height="13" viewBox="0 0 14 13" fill="none" xmlns="http://www.w3.org/2000/svg">
<g clip-path="url(#clip0_84_43)">
<g clip-path="url(#clip1_84_43)">
<path fill-rule="evenodd" clip-rule="evenodd" d="M12 12.27H2C1.46957 12.27 0.960888 12.0592 0.585815 11.6841C0.210743 11.309 0 10.8005 0 10.27V2.27002V1.27002H0.276978C0.450263 0.966012 0.701015 0.71325 1.00366 0.537599C1.30631 0.361947 1.65007 0.269675 2 0.27002H12C12.5304 0.27002 13.0391 0.480885 13.4142 0.855958C13.7893 1.23103 14 1.73959 14 2.27002V10.27C14 10.8005 13.7893 11.309 13.4142 11.6841C13.0391 12.0592 12.5304 12.27 12 12.27ZM2.89502 2.27002L7 5.27002L11.105 2.27002H2.90002H2.89502ZM12 4.41016L7 8.27002L2 4.41016V10.27H12V4.41016Z" fill="#333333"/>
</g>
</g>
<defs>
<clipPath id="clip0_84_43">
<rect width="14" height="12" fill="white" transform="translate(0 0.27002)"/>
</clipPath>
<clipPath id="clip1_84_43">
<rect width="14" height="12" fill="white" transform="translate(0 0.27002)"/>
</clipPath>
</defs>
</svg>
