<svg width="198" height="52" viewBox="0 0 198 52" fill="none" xmlns="http://www.w3.org/2000/svg">
<g clip-path="url(#clip0_84_547)">
<g clip-path="url(#clip1_84_547)">
<g clip-path="url(#clip2_84_547)">
<path fill-rule="evenodd" clip-rule="evenodd" d="M32.7445 0.634498C35.0057 0.530033 36.9239 2.2725 37.0286 4.52659C37.1336 6.78094 35.3854 8.6929 33.1243 8.79737C30.8631 8.90183 28.9452 7.15962 28.8404 4.90527C28.7354 2.65119 30.4831 0.738962 32.7445 0.634498Z" fill="#E31E24"/>
<path fill-rule="evenodd" clip-rule="evenodd" d="M45.8142 21.7212C42.1482 12.1692 34.3513 8.84985 27.7193 9.56648C20.7863 10.315 14.3204 16.7513 14.0564 23.7833C14.7247 22.2642 15.2778 20.8014 16.1193 19.5624C17.7874 17.1054 20.0216 15.3133 22.5554 14.2123C25.5075 12.9292 29.2291 12.5837 33.2029 14.1527C35.4414 15.0365 36.7542 16.3674 37.837 17.5805C40.51 20.5763 41.3277 24.0889 42.9181 25.1301C44.6784 26.2829 46.7463 24.5935 45.8142 21.7212Z" fill="#E31E24"/>
<path fill-rule="evenodd" clip-rule="evenodd" d="M0.710805 33.7626C-0.553217 31.8908 -0.0559652 29.3516 1.82153 28.0915C3.69928 26.8311 6.24639 27.327 7.51041 29.1988C8.77443 31.0705 8.27718 33.6095 6.39969 34.8696C4.5222 36.1297 1.97509 35.6343 0.710805 33.7626Z" fill="#4F8A31"/>
<path fill-rule="evenodd" clip-rule="evenodd" d="M11.9957 11.6754C5.71213 19.7601 6.91765 28.1259 10.9769 33.403C15.2202 38.9197 24.0958 41.0845 30.2608 37.6565C28.6116 37.8761 27.0702 38.1647 25.5711 38.0919C22.5986 37.9472 19.9023 36.9751 17.642 35.3888C15.0084 33.5409 12.7794 30.55 12.0602 26.3498C11.6549 23.9839 12.1135 22.1743 12.5909 20.6217C13.77 16.7889 16.3563 14.2677 16.4229 12.3716C16.4963 10.2732 13.9737 9.38916 11.9959 11.6754H11.9957Z" fill="#4F8A31"/>
<path fill-rule="evenodd" clip-rule="evenodd" d="M44.9109 44.4663C43.8558 46.4623 41.3769 47.2283 39.3745 46.1764C37.372 45.1247 36.6036 42.6533 37.659 40.6573C38.7141 38.6607 41.193 37.8949 43.1956 38.9472C45.1979 39.9989 45.9663 42.47 44.9109 44.4663Z" fill="#399B3A"/>
<path fill-rule="evenodd" clip-rule="evenodd" d="M20.0524 45.0165C30.1708 46.7052 36.9916 41.6852 39.7319 35.6223C42.5969 29.2842 40.3065 20.466 34.3585 16.6763C35.3337 18.0205 36.3183 19.237 36.9639 20.5877C38.2436 23.2665 38.6617 26.0941 38.3305 28.8297C37.9448 32.0172 36.358 35.3909 32.9877 38.0111C31.0896 39.4872 29.2732 39.9417 27.6754 40.2577C23.7306 41.0372 20.2783 39.9605 18.5718 40.7998C16.6831 41.729 17.0965 44.3626 20.0526 45.0165H20.0524Z" fill="#E31E24"/>
<path fill-rule="evenodd" clip-rule="evenodd" d="M189.799 9.95954C189.909 10.3698 190.081 10.7524 190.432 11.0097C190.812 11.2889 191.289 11.3729 191.752 11.3797C193.558 11.4066 193.914 9.90913 194.565 9.77986C194.632 9.7668 194.695 9.80728 194.748 9.84828L194.764 9.86082L194.776 9.87597C194.817 9.9282 194.844 9.99088 194.844 10.0583V10.0844L194.836 10.1092C194.677 10.6002 194.424 11.0418 194.086 11.4338C193.738 11.8386 193.313 12.1517 192.831 12.3826C192.303 12.6349 191.743 12.7503 191.159 12.7495C190.736 12.7487 190.326 12.6756 189.934 12.5179C189.565 12.3693 189.238 12.1546 188.975 11.8556C188.715 11.5602 188.57 11.2097 188.572 10.8151C188.573 10.6117 188.701 10.4168 188.826 10.2659C189.001 10.0556 189.673 9.48344 189.799 9.95954H189.799ZM119.151 41.9116C118.694 42.4264 118.173 42.9017 117.584 43.2621C117.114 43.5496 116.601 43.8032 116.067 43.945C115.649 44.0555 115.207 44.1323 114.775 44.1284C113.999 44.1213 113.214 43.9923 112.525 43.6217C111.886 43.2783 111.369 42.7959 110.952 42.2059C110.582 41.6815 110.311 41.1025 110.131 40.4872C109.944 39.8466 109.852 39.1861 109.852 38.5189C109.852 37.8524 109.948 37.1979 110.156 36.5638C110.36 35.9412 110.674 35.3672 111.085 34.8563C111.525 34.3076 112.058 33.8511 112.664 33.4936C113.023 33.2823 113.404 33.1066 113.789 32.9496C114.184 32.7882 114.588 32.6474 115.001 32.5401C115.366 32.4453 115.748 32.3787 116.126 32.3761C116.416 32.3743 116.709 32.3881 116.997 32.4241C117.222 32.4523 117.452 32.4884 117.669 32.5513C117.859 32.6051 118.045 32.6735 118.224 32.7558C118.327 32.8041 118.428 32.8694 118.526 32.9282C118.647 33.0016 118.761 33.0867 118.864 33.1839C118.964 33.2789 119.053 33.3941 119.099 33.5255L119.108 33.5521V33.5798C119.108 33.6367 119.097 33.6986 119.087 33.7548C119.075 33.8156 119.062 33.8767 119.045 33.9357L119.039 33.9553L119.029 33.9731C118.958 34.093 118.882 34.2073 118.794 34.3155C118.705 34.4252 118.609 34.5301 118.504 34.6244C118.421 34.6989 118.321 34.784 118.218 34.8268C118.153 34.8542 118.087 34.8589 118.018 34.8589C117.871 34.8589 117.945 34.8832 117.825 34.8216L117.8 34.8093L117.781 34.7897C117.59 34.5944 117.371 34.4194 117.148 34.2627C116.864 34.0632 116.539 33.9169 116.212 33.8018C115.816 33.6615 115.392 33.6056 114.973 33.6054C114.486 33.6051 114.021 33.7064 113.595 33.9444C113.202 34.1632 112.873 34.4609 112.612 34.8268C112.343 35.2045 112.146 35.6213 112.018 36.0668C111.887 36.5184 111.817 36.9824 111.817 37.4523C111.817 38.1451 111.891 38.8482 112.083 39.516C112.238 40.0524 112.479 40.5672 112.847 40.9926C113.232 41.4384 113.691 41.8505 114.234 42.0955C114.768 42.336 115.347 42.424 115.929 42.4222C116.257 42.4211 116.584 42.3684 116.9 42.2827C117.268 42.1837 117.618 42.0357 117.95 41.8495C118.306 41.6502 118.625 41.3919 118.906 41.0981L118.955 41.0472H119.026C119.128 41.0472 119.118 41.0587 119.178 41.1038C119.266 41.1699 119.277 41.1501 119.277 41.2971C119.277 41.3875 119.264 41.482 119.252 41.5716C119.239 41.6708 119.219 41.78 119.177 41.8719L119.167 41.8936L119.151 41.9119L119.151 41.9116ZM105.268 38.522H100.111C100.111 39.1151 100.114 39.7082 100.116 40.3013C100.119 40.8675 100.124 41.4337 100.14 41.9996C100.145 42.1997 100.171 42.4697 100.273 42.647C100.355 42.7909 100.516 42.8654 100.669 42.9121C101.003 43.0135 101.366 43.0597 101.711 43.1025C101.81 43.1153 101.78 43.0926 101.834 43.1824C101.887 43.2723 101.902 43.3786 101.894 43.482C101.884 43.6021 101.838 43.7121 101.756 43.8006L101.71 43.8486C101.498 43.8455 101.294 43.8351 101.085 43.8231C100.802 43.8074 100.517 43.8053 100.233 43.793C99.9123 43.7787 99.5911 43.7695 99.2699 43.7695C98.9716 43.7695 98.6736 43.7797 98.3762 43.793C98.073 43.8061 97.7698 43.815 97.4671 43.8296C97.2341 43.8413 96.9978 43.8536 96.7645 43.8536H96.6878L96.6384 43.7959C96.5846 43.7335 96.5572 43.6593 96.5439 43.5789C96.5332 43.5097 96.5272 43.4402 96.5332 43.3697C96.5394 43.2966 96.5593 43.2234 96.6055 43.1641L96.6494 43.1069L97.6306 42.9085C97.7546 42.8821 97.8766 42.834 97.9729 42.7497C98.0502 42.682 98.0936 42.5961 98.1184 42.4974C98.1581 42.3402 98.1688 42.1602 98.1743 41.9986C98.1897 41.5598 98.2103 41.1221 98.2166 40.6831C98.2237 40.2034 98.2286 39.7236 98.231 39.2438C98.2328 38.7983 98.231 38.3528 98.231 37.9075C98.231 37.5011 98.2255 37.0945 98.221 36.6886C98.2166 36.2502 98.2077 35.8117 98.1931 35.3729C98.1808 34.9859 98.1725 34.5607 98.1537 34.1734C98.1458 34.0125 98.1124 33.8373 98.0213 33.7002C97.9393 33.5761 97.8068 33.5166 97.6648 33.4855C97.513 33.4526 97.3592 33.4173 97.2057 33.3938C97.0665 33.3722 96.9249 33.3659 96.7844 33.3526C96.663 33.3539 96.6593 33.3763 96.6361 33.2499C96.6186 33.1557 96.6071 33.0543 96.6126 32.9632C96.6186 32.859 96.6528 32.7566 96.7157 32.6728L96.7682 32.6038L96.8544 32.6067C97.1072 32.615 97.3621 32.6325 97.6149 32.649C98.0988 32.6798 98.5882 32.6887 99.0735 32.6908C99.3992 32.6923 99.7248 32.6811 100.05 32.6673C100.331 32.655 100.613 32.6464 100.893 32.6299C101.053 32.6211 101.221 32.6067 101.381 32.6067H101.468L101.517 32.678C101.582 32.7712 101.61 32.8848 101.613 32.9974C101.615 33.099 101.605 33.2087 101.542 33.293L101.498 33.3513L101.424 33.3583C101.283 33.3716 101.14 33.3883 101.001 33.4163C100.849 33.4466 100.698 33.4858 100.547 33.5226C100.419 33.5539 100.305 33.6106 100.224 33.7177C100.134 33.8375 100.111 34.0021 100.111 34.147V37.4332H102.563C102.956 37.4332 103.349 37.4353 103.742 37.4377C104.073 37.4395 104.404 37.4473 104.735 37.4473C104.914 37.4473 105.091 37.4421 105.269 37.4358C105.273 37.271 105.275 37.1062 105.273 36.9412C105.27 36.6646 105.265 36.3875 105.259 36.1107C105.252 35.8166 105.25 35.5223 105.24 35.2282C105.232 34.9848 105.227 34.7406 105.221 34.4975C105.219 34.3815 105.211 34.2606 105.212 34.1455C105.214 34.0044 105.191 33.8402 105.102 33.7255C105.008 33.6056 104.825 33.5341 104.684 33.4928C104.61 33.4709 104.533 33.4547 104.457 33.4406C104.348 33.4207 104.24 33.403 104.131 33.3847C104 33.3633 103.901 33.3802 103.757 33.3502C103.709 33.2288 103.684 33.1852 103.678 33.0507C103.671 32.8537 103.652 32.7145 103.829 32.626L103.918 32.6069C104.231 32.6127 104.545 32.6302 104.858 32.6493C105.313 32.6767 105.768 32.689 106.223 32.691C106.673 32.6929 107.121 32.6801 107.57 32.6587C107.858 32.6446 108.146 32.6341 108.434 32.6124L108.496 32.608C108.614 32.6493 108.634 32.6788 108.65 32.8723C108.655 32.9415 108.655 33.0112 108.649 33.0804C108.639 33.211 108.63 33.3199 108.422 33.3588C108.19 33.3766 107.663 33.4455 107.492 33.5529C107.385 33.6046 107.311 33.6832 107.258 33.7879C107.185 33.93 107.157 34.111 107.148 34.2685C107.136 34.486 107.136 34.7072 107.135 34.9253C107.132 35.2447 107.128 35.5641 107.126 35.8835C107.123 36.2431 107.12 36.6027 107.12 36.9629C107.12 37.3058 107.12 37.6489 107.12 37.9918C107.12 38.3791 107.121 38.7667 107.126 39.154C107.13 39.552 107.13 39.9492 107.135 40.347C107.139 40.6946 107.142 41.0427 107.144 41.3903C107.146 41.6327 107.149 41.8748 107.149 42.1169C107.149 42.2673 107.17 42.4431 107.248 42.5755C107.307 42.6758 107.384 42.7489 107.489 42.8009C107.615 42.8638 107.756 42.9056 107.893 42.9375C108.043 42.9719 108.194 43.0046 108.347 43.0286C108.504 43.0542 108.662 43.072 108.819 43.1054C109.107 43.1657 109.056 43.7852 108.796 43.8494L108.776 43.8539H108.756C108.498 43.8539 108.24 43.8447 107.982 43.8298C107.72 43.8155 107.457 43.8063 107.195 43.793C106.899 43.7779 106.603 43.7698 106.307 43.7698C106.061 43.7698 105.814 43.7745 105.567 43.7836C105.315 43.7925 105.064 43.8019 104.813 43.8116C104.605 43.8197 104.398 43.8285 104.191 43.8398C104.072 43.846 103.949 43.8539 103.83 43.8539H103.751L103.701 43.7933C103.628 43.7045 103.601 43.5945 103.598 43.4822C103.596 43.382 103.607 43.2767 103.656 43.1877L103.694 43.1192L103.771 43.1046C103.887 43.0827 104.004 43.0636 104.121 43.0471C104.251 43.0286 104.38 43.0048 104.51 42.9826C104.624 42.9623 104.743 42.9419 104.855 42.9111C104.984 42.8753 105.091 42.8079 105.161 42.6938C105.249 42.5533 105.266 42.3318 105.268 42.1709C105.273 41.7988 105.282 41.4269 105.282 41.055C105.282 40.6685 105.276 40.2825 105.273 39.8962C105.27 39.4382 105.268 38.9801 105.268 38.5223V38.522ZM90.3131 32.3536C91.0647 32.3531 91.8064 32.4824 92.4932 32.7942C93.1146 33.0765 93.6541 33.4732 94.0947 33.9932C94.5389 34.5181 94.8607 35.1172 95.0738 35.7699C95.3026 36.4716 95.4052 37.1979 95.4052 37.9352C95.4052 38.6017 95.3086 39.2569 95.1169 39.896C94.9247 40.5353 94.6277 41.132 94.2391 41.6747C93.8403 42.2323 93.3405 42.6888 92.7698 43.068C92.4964 43.2498 92.2104 43.4109 91.914 43.552C91.5734 43.7141 91.2185 43.8458 90.8545 43.9458C90.4753 44.0503 90.0877 44.1046 89.6944 44.1059C88.9751 44.1085 88.2502 44.0061 87.5779 43.7442C87.0083 43.5219 86.4792 43.2101 86.04 42.7826C85.6257 42.3791 85.2917 41.9166 85.036 41.3995C84.7835 40.8889 84.5999 40.3499 84.4873 39.7918C84.3771 39.2452 84.3181 38.6891 84.3202 38.131C84.322 37.4669 84.4087 36.7978 84.6294 36.1689C84.8255 35.6103 85.1073 35.0906 85.4832 34.6317C85.8483 34.1846 86.2779 33.8002 86.7574 33.4769C87.2729 33.1293 87.836 32.8621 88.4259 32.6665C89.0355 32.4636 89.6698 32.3549 90.3131 32.3539V32.3536ZM86.6054 35.684C86.4257 36.2549 86.3708 36.8913 86.369 37.4873C86.3664 38.217 86.4615 38.9419 86.6717 39.6419C86.8576 40.2598 87.1256 40.8513 87.5095 41.3734C87.8576 41.8458 88.2872 42.2355 88.8025 42.5188C89.3126 42.7993 89.872 42.9309 90.4538 42.9333C90.6602 42.9335 90.8657 42.9147 91.0691 42.8753C91.2922 42.8322 91.5095 42.7622 91.7168 42.6674C91.9265 42.5716 92.114 42.4415 92.2786 42.2793C92.5525 42.0093 92.7766 41.7027 92.9393 41.3546C93.1052 40.9996 93.2104 40.6176 93.2679 40.2313C93.3365 39.7703 93.3572 39.2997 93.3553 38.8343C93.3519 38.112 93.2733 37.3867 93.0798 36.6886C92.9116 36.0817 92.6586 35.5004 92.2888 34.9874C91.9519 34.5207 91.5332 34.1418 91.0227 33.8728C90.4878 33.5905 89.901 33.473 89.2987 33.4709C89.135 33.4703 88.9686 33.4905 88.8083 33.5194C88.6257 33.5526 88.4468 33.6022 88.2734 33.6665C88.1188 33.7237 87.9801 33.8007 87.8438 33.8916C87.5837 34.0658 87.3604 34.2818 87.1695 34.5288C86.9099 34.8652 86.732 35.2815 86.6054 35.684ZM76.0954 37.8427C76.3083 37.8273 76.5235 37.8035 76.7311 37.7636C76.921 37.727 77.115 37.6717 77.2863 37.5826C77.4493 37.4985 77.5945 37.3899 77.7227 37.2585C77.9437 37.0323 78.1296 36.7675 78.2895 36.4954C78.4793 36.1721 78.6436 35.8349 78.7857 35.4881C79.022 34.9109 79.2931 34.3139 79.6243 33.784C79.8274 33.4589 80.0813 33.0974 80.3754 32.8475C80.5762 32.6764 80.8118 32.5205 81.07 32.4531C81.267 32.4017 81.4686 32.3792 81.6723 32.3821C81.8392 32.3844 81.9956 32.42 82.1458 32.4923C82.2884 32.5602 82.4098 32.6587 82.5062 32.7843L82.5299 32.8154L82.5372 32.8545C82.5618 32.9859 82.543 33.159 82.5239 33.2915C82.4965 33.4863 82.4602 33.6806 82.4192 33.8736C82.3845 34.0345 82.3573 34.2113 82.3064 34.3669C82.2476 34.5487 82.1045 34.6597 81.9154 34.5808C81.7047 34.4933 81.4937 34.3857 81.2751 34.3199C81.1199 34.2734 80.9512 34.2366 80.789 34.2285C80.7117 34.2246 80.6318 34.2645 80.5689 34.3053C80.4336 34.3925 80.2834 34.6014 80.1933 34.7323C79.9745 35.0501 79.7883 35.4395 79.625 35.7887C79.4046 36.2609 79.1599 36.7362 78.8721 37.171C78.7052 37.4228 78.5161 37.6732 78.3009 37.891C78.4678 37.9811 78.624 38.0882 78.77 38.2112C78.945 38.358 79.1074 38.5233 79.2427 38.7077C79.4182 38.9469 79.5919 39.188 79.7648 39.4298C79.9828 39.7346 80.1991 40.0412 80.4166 40.3465C80.6444 40.6654 80.8742 40.9827 81.1056 41.2989C81.3085 41.5763 81.5101 41.8549 81.7182 42.1286C81.8413 42.2908 81.9739 42.4593 82.1194 42.6019C82.2283 42.7082 82.3537 42.7956 82.4915 42.8599C82.6498 42.9343 82.8217 42.9805 82.9938 43.0103C83.2562 43.0563 83.5299 43.0793 83.7958 43.1022L83.842 43.1062C83.9548 43.1422 83.9695 43.2198 83.976 43.3778C83.9783 43.4522 83.9776 43.5279 83.9635 43.6013C83.9483 43.6828 83.9219 43.77 83.8517 43.8217L83.8149 43.8486L83.7694 43.8534C83.6127 43.8685 83.4545 43.8782 83.2975 43.8865C83.0557 43.8991 82.8141 43.915 82.572 43.9239C82.3286 43.9327 82.0847 43.9351 81.841 43.9382C81.6386 43.9406 81.4354 43.9312 81.2351 43.8985C81.0162 43.8628 80.8104 43.7815 80.6177 43.6737C80.3787 43.5397 80.1701 43.3582 79.9946 43.1493C79.7157 42.8181 79.4749 42.4645 79.2333 42.1062C78.9996 41.7588 78.7676 41.4091 78.5451 41.054C78.2866 40.6405 78.0223 40.2313 77.7583 39.821C77.5384 39.4799 77.2647 39.1331 76.9238 38.9059C76.6705 38.7369 76.3911 38.6458 76.0941 38.6165C76.0944 38.8644 76.0954 39.112 76.0986 39.3598C76.1033 39.7199 76.1077 40.0803 76.1124 40.4402C76.1169 40.7842 76.1239 41.1284 76.1315 41.4723C76.1372 41.7298 76.1359 41.991 76.1498 42.2482C76.1586 42.4031 76.1929 42.5729 76.2895 42.699C76.3825 42.8205 76.5201 42.8769 76.6663 42.9087C76.9931 42.9787 77.3271 43.0545 77.6598 43.0842L77.7878 43.0957L77.8089 43.2119C77.8243 43.3039 77.8303 43.3995 77.8246 43.4922C77.8186 43.599 77.7862 43.7019 77.7214 43.7875L77.6716 43.8539H77.5885C77.4477 43.8539 77.3041 43.846 77.1636 43.8398C76.9372 43.8291 76.7107 43.8202 76.4843 43.8116C76.2511 43.8027 76.0179 43.7933 75.7847 43.7836C75.6267 43.7763 75.4668 43.7698 75.3086 43.7698C75.0524 43.7698 74.7959 43.7745 74.5405 43.7836C74.2856 43.7925 74.0307 43.8019 73.7758 43.8116C73.5705 43.8194 73.3647 43.8285 73.1597 43.8398C73.0419 43.846 72.921 43.8539 72.8035 43.8539H72.7124L72.6633 43.7776C72.6016 43.682 72.5742 43.5763 72.5708 43.4632C72.569 43.3616 72.5789 43.2529 72.6418 43.1686L72.6857 43.1088L72.7599 43.1022C72.9226 43.0876 73.0848 43.0691 73.2459 43.0427C73.4157 43.0155 73.5836 42.9753 73.7515 42.9375C73.8753 42.9095 73.9999 42.8578 74.0855 42.7609C74.1738 42.6604 74.2018 42.4815 74.214 42.3535C74.2281 42.2075 74.237 42.0618 74.2415 41.915C74.2501 41.6452 74.2535 41.3754 74.2553 41.1054C74.2579 40.7641 74.2626 40.4227 74.2652 40.0811C74.2673 39.7184 74.2697 39.3554 74.2697 38.9926C74.2697 38.6588 74.2697 38.3253 74.2697 37.9918C74.2697 37.6121 74.2647 37.2321 74.2603 36.8524C74.2553 36.4792 74.2462 36.1057 74.237 35.7323C74.2287 35.4215 74.2195 35.1099 74.2083 34.7986C74.2018 34.604 74.1973 34.4077 74.1858 34.2136C74.1759 34.053 74.1435 33.8744 74.0534 33.7383C73.9714 33.6142 73.8385 33.5547 73.6964 33.5236C73.5449 33.4907 73.3911 33.4557 73.2375 33.432C73.0981 33.4103 72.956 33.3996 72.8158 33.3863L72.6891 33.374L72.6674 33.2489C72.6515 33.1549 72.6458 33.0585 72.6512 32.9634C72.6575 32.8592 72.6917 32.7569 72.7549 32.673L72.8069 32.6041L72.8933 32.6069C73.1461 32.6153 73.401 32.6328 73.6536 32.6493C74.1375 32.6801 74.6272 32.689 75.1122 32.691C75.4378 32.6926 75.7638 32.6814 76.0892 32.6675C76.3699 32.6553 76.6512 32.6466 76.9314 32.6302C77.0915 32.6213 77.2597 32.6069 77.4195 32.6069H77.5065L77.5561 32.6782C77.6214 32.7715 77.6486 32.8851 77.6514 32.9976C77.6538 33.0992 77.6441 33.2089 77.5807 33.2933L77.5365 33.3515L77.4631 33.3586C77.3213 33.3719 77.1793 33.3886 77.0395 33.4166C76.8878 33.4468 76.7369 33.486 76.5864 33.5228C76.4556 33.5547 76.3401 33.6116 76.2571 33.7198C76.1623 33.8425 76.1234 33.9953 76.1223 34.1488L76.0954 37.843V37.8427ZM132.854 43.1513C133.16 43.1077 133.219 43.0895 133.506 42.9829C133.69 42.9145 133.865 42.7638 133.994 42.6136C134.138 42.4475 134.251 42.2378 134.339 42.038C134.492 41.6896 134.639 41.3376 134.783 40.9853C134.996 40.4627 135.2 39.937 135.405 39.4115C135.642 38.8048 135.87 38.1945 136.099 37.5844C136.326 36.9838 136.549 36.3823 136.765 35.7775C136.945 35.2695 137.098 34.7464 137.291 34.2444C137.307 34.2037 137.309 34.1078 137.309 34.0648C137.309 33.9491 137.244 33.7817 137.194 33.668C137.128 33.5994 137.142 33.5965 137.15 33.4878C137.16 33.3345 137.147 33.393 137.241 33.293C137.308 33.2212 137.39 33.1543 137.468 33.0958C137.597 32.9992 137.726 32.9039 137.855 32.8094C137.983 32.7156 138.115 32.6273 138.248 32.5414C138.312 32.4999 138.445 32.4155 138.536 32.3991C138.657 32.3991 138.628 32.3863 138.729 32.468C138.836 32.5545 138.791 32.5007 138.838 32.6111C139.038 33.0802 139.191 33.5795 139.367 34.0595C139.575 34.6276 139.786 35.1943 139.995 35.7615C140.216 36.3577 140.441 36.9524 140.666 37.5471C140.879 38.1125 141.1 38.6753 141.317 39.2391C141.502 39.7173 141.691 40.1929 141.884 40.6674C142.015 40.99 142.144 41.3269 142.297 41.6392C142.421 41.8931 142.557 42.1333 142.696 42.3791C142.777 42.523 142.878 42.6572 143.005 42.7638C143.127 42.8664 143.29 42.9304 143.442 42.9745C143.71 43.0529 143.915 43.1153 144.194 43.1482C144.293 43.2715 144.307 43.9043 144.015 43.8944C143.638 43.8805 143.472 43.8656 143.096 43.8463C142.724 43.827 142.351 43.8139 141.978 43.8139C141.573 43.8139 141.168 43.8262 140.762 43.8463C140.438 43.8622 140.115 43.881 139.791 43.8975L139.705 43.9019L139.652 43.8348C139.608 43.7792 139.586 43.7105 139.573 43.6418C139.558 43.57 139.557 43.5 139.56 43.4266C139.563 43.348 139.574 43.271 139.625 43.2075L139.664 43.1592L139.725 43.1482C139.801 43.1346 139.876 43.1174 139.952 43.102C140.054 43.0814 140.157 43.0589 140.259 43.0302C140.34 43.0072 140.42 42.9782 140.495 42.9395C140.513 42.9304 140.522 42.9045 140.526 42.886C140.542 42.8173 140.52 42.7275 140.498 42.6619C140.389 42.336 140.275 42.0119 140.157 41.6891C139.988 41.2274 139.818 40.7662 139.642 40.3073C139.443 39.7894 139.246 39.2718 139.046 38.755C138.854 38.2554 138.656 37.7576 138.46 37.2595C138.3 36.8542 138.144 36.4481 137.986 36.0423C137.93 35.8973 137.873 35.7529 137.816 35.6082C137.805 35.6406 137.793 35.6732 137.781 35.7062C137.667 36.0274 137.549 36.3481 137.434 36.6696C137.277 37.1122 137.125 37.5573 136.97 38.0012C136.801 38.4852 136.635 38.9699 136.468 39.4549C136.316 39.9022 136.16 40.3486 136.009 40.7965C135.898 41.126 135.795 41.4575 135.691 41.7891C135.623 42.008 135.542 42.2926 135.539 42.523C135.536 42.7865 135.752 42.9894 135.999 43.0343L136.437 43.1237L137.031 43.1644L137.066 43.2488C137.09 43.3083 137.09 43.3804 137.087 43.4438C137.085 43.5151 137.08 43.5864 137.065 43.657C137.05 43.734 137.021 43.8157 136.955 43.8648L136.911 43.8977H136.855C136.066 43.8539 135.259 43.809 134.458 43.8139C134.116 43.8157 133.796 43.8191 133.455 43.845C133.201 43.8641 133.027 43.8829 132.923 43.8816C132.834 43.8802 132.793 43.7387 132.777 43.6358C132.751 43.466 132.769 43.2851 132.854 43.1513H132.854ZM132.395 43.8889C132.392 43.8855 132.175 43.881 132.14 43.8789C131.902 43.8654 131.663 43.8583 131.424 43.8463C131.139 43.8317 130.855 43.8204 130.57 43.8139C130.293 43.8071 130.016 43.8066 129.739 43.8139C129.397 43.8228 129.056 43.839 128.715 43.8554C128.519 43.8654 128.315 43.8737 128.121 43.8964L128.028 43.9079L127.971 43.8348C127.93 43.7836 127.907 43.7246 127.892 43.6611C127.879 43.6021 127.873 43.5434 127.87 43.4828C127.867 43.423 127.875 43.3075 127.898 43.2519L127.927 43.1762L128.005 43.1532C128.221 43.09 128.467 43.0686 128.667 42.9638C128.764 42.9121 128.865 42.8377 128.911 42.7345C128.966 42.6094 128.977 42.4355 128.977 42.3013V35.7942C128.846 35.943 128.718 36.0945 128.587 36.2415C128.282 36.5834 127.974 36.9229 127.667 37.2624C127.305 37.6615 126.94 38.0577 126.578 38.4554C126.213 38.8552 125.846 39.2512 125.479 39.6486C125.164 39.9897 124.848 40.3295 124.531 40.669C124.318 40.8975 124.105 41.1287 123.885 41.3504C123.851 41.3848 123.827 41.4235 123.815 41.4705C123.796 41.547 123.791 41.6303 123.792 41.709C123.796 41.9644 123.81 42.2245 123.847 42.4778C123.858 42.5572 123.887 42.7152 123.941 42.7784C123.992 42.8385 124.058 42.8761 124.132 42.9019C124.267 42.9495 124.426 42.9832 124.566 43.0129C124.838 43.0717 125.117 43.1116 125.392 43.1461L125.467 43.1555L125.509 43.219C125.551 43.2809 125.549 43.3618 125.547 43.4337C125.544 43.5039 125.538 43.5755 125.525 43.6447C125.51 43.7264 125.483 43.8134 125.413 43.8651L125.369 43.8972H125.315C125.12 43.8972 124.919 43.8839 124.725 43.8735C124.419 43.8575 124.113 43.8492 123.807 43.8366C123.465 43.8225 123.123 43.8134 122.781 43.8134C122.483 43.8134 122.186 43.8231 121.888 43.8361C121.601 43.8492 121.313 43.8583 121.027 43.8735C120.825 43.8844 120.619 43.8972 120.417 43.8972H120.336L120.286 43.8343C120.238 43.774 120.219 43.6985 120.213 43.6227C120.208 43.5551 120.208 43.4875 120.213 43.4193C120.219 43.3438 120.238 43.2686 120.286 43.2078L120.327 43.1566L120.392 43.1469C120.576 43.119 120.76 43.0879 120.942 43.0503C121.08 43.0218 121.222 42.9918 121.358 42.9547C121.48 42.9213 121.61 42.8685 121.697 42.7737C121.785 42.6771 121.824 42.5084 121.843 42.3835C121.886 42.1002 121.883 41.7737 121.883 41.4867V37.586C121.883 37.0195 121.886 36.4523 121.879 35.8853C121.872 35.3418 121.853 34.7981 121.827 34.2546C121.819 34.0919 121.788 33.8981 121.698 33.76C121.556 33.5419 121.129 33.4925 120.883 33.4544C120.743 33.4327 120.602 33.4223 120.461 33.4092L120.334 33.3967L120.309 33.2922C120.293 33.1982 120.288 33.1016 120.293 33.0068C120.299 32.9023 120.333 32.8002 120.397 32.7161L120.449 32.6474L120.535 32.65C120.788 32.6584 121.043 32.6762 121.295 32.6924C121.779 32.7234 122.269 32.7323 122.754 32.7344C123.08 32.7357 123.406 32.7247 123.731 32.7109C124.012 32.6986 124.293 32.6897 124.573 32.6735C124.733 32.6644 124.901 32.65 125.061 32.65H125.148L125.198 32.7213C125.263 32.8148 125.29 32.9279 125.293 33.041C125.296 33.1426 125.286 33.252 125.223 33.3364L125.178 33.3949L125.105 33.4019C124.963 33.415 124.821 33.4317 124.681 33.4596C124.529 33.4902 124.378 33.5317 124.226 33.5667C124.089 33.5981 123.983 33.661 123.906 33.7803C123.797 33.9483 123.768 34.2233 123.764 34.4186C123.751 35.0556 123.766 35.6947 123.769 36.3319C123.771 37.0086 123.778 37.6855 123.778 38.3622C123.778 38.937 123.771 39.5113 123.766 40.0856C123.906 39.9487 124.044 39.802 124.177 39.6643C124.485 39.347 124.788 39.0247 125.09 38.7025C125.454 38.3149 125.817 37.9252 126.178 37.5343C126.545 37.1368 126.911 36.7388 127.274 36.3387C127.592 35.9887 127.904 35.6341 128.216 35.2789C128.429 35.035 128.641 34.7879 128.845 34.5356C128.869 34.5051 128.894 34.4693 128.907 34.4325C128.919 34.3993 128.921 34.3403 128.921 34.3055C128.918 34.1337 128.896 33.8955 128.8 33.7461C128.622 33.4649 127.934 33.4374 127.615 33.387C127.47 33.2053 127.454 32.8498 127.656 32.6947L127.704 32.6574L127.766 32.661C127.973 32.6717 128.187 32.6981 128.394 32.7059C128.634 32.7153 128.873 32.72 129.113 32.7245C129.32 32.7287 129.527 32.7344 129.734 32.7344C130.195 32.7344 130.655 32.7216 131.115 32.7012C131.459 32.6863 131.806 32.6722 132.149 32.654L132.267 32.6477C132.342 32.802 132.369 32.9292 132.354 33.0982C132.351 33.1747 132.333 33.2682 132.284 33.3291L132.244 33.3797L132.18 33.3891C131.998 33.4165 131.816 33.4296 131.634 33.4607C131.489 33.4855 131.335 33.5142 131.196 33.5615C131.102 33.5939 131.026 33.6477 130.973 33.7318C130.917 33.8187 130.873 33.9156 130.855 34.0175C130.838 34.1146 130.832 34.2094 130.829 34.3074C130.819 34.655 130.802 35.001 130.796 35.3486C130.788 35.8414 130.787 36.335 130.787 36.8284C130.787 37.3906 130.789 37.9527 130.796 38.5147C130.803 39.0644 130.806 39.6147 130.815 40.1644C130.823 40.6223 130.835 41.0798 130.848 41.5376C130.857 41.8171 130.855 42.1182 130.885 42.3953C130.896 42.5003 130.93 42.6 130.992 42.6862C131.038 42.7531 131.101 42.8171 131.178 42.8494C131.531 43.0166 132.012 43.1127 132.397 43.126C132.455 43.1707 132.495 43.2399 132.507 43.3182L132.516 43.3773C132.538 43.5204 132.531 43.8029 132.395 43.8881V43.8889ZM144.562 43.154L144.624 43.132C144.853 43.0973 145.183 43.0443 145.408 42.9824C145.529 42.9495 145.65 42.869 145.736 42.7742C145.824 42.6776 145.863 42.5089 145.882 42.3841C145.926 42.1007 145.922 41.7742 145.922 41.4872V37.5865C145.922 37.0201 145.925 36.4528 145.918 35.8858C145.911 35.3424 145.892 34.7986 145.867 34.2551C145.858 34.0924 145.824 33.9193 145.734 33.7809C145.652 33.6553 145.521 33.5986 145.378 33.5672C145.226 33.5343 145.072 33.4993 144.919 33.4756C144.779 33.4536 144.637 33.4244 144.497 33.4111L144.37 33.3988L144.348 33.2737C144.333 33.1797 144.327 33.1021 144.332 33.0073C144.339 32.9028 144.373 32.8007 144.436 32.7166L144.486 32.6579L144.571 32.6626C144.823 32.6709 145.082 32.6767 145.335 32.6929C145.819 32.7239 146.308 32.7328 146.793 32.7349C147.119 32.7362 147.445 32.7253 147.77 32.7114C148.051 32.6991 148.332 32.6903 148.612 32.6741C148.772 32.6649 148.941 32.6506 149.101 32.6506H149.188L149.237 32.7219C149.302 32.8154 149.33 32.9284 149.332 33.0415C149.335 33.1431 149.325 33.2525 149.262 33.3369L149.218 33.3954L149.144 33.4024C148.825 33.432 148.575 33.4688 148.265 33.5398C148.128 33.5712 148.023 33.6615 147.946 33.7809C147.836 33.9488 147.808 34.2238 147.803 34.4192C147.79 35.0561 147.806 35.6952 147.808 36.3324C147.81 37.0091 147.817 37.686 147.817 38.3627C147.817 38.9375 147.81 39.5118 147.805 40.0861C147.946 39.9492 148.083 39.8025 148.217 39.6648C148.524 39.3475 148.827 39.0253 149.13 38.703C149.494 38.3154 149.856 37.9258 150.217 37.5348C150.584 37.1373 150.95 36.7393 151.314 36.3392C151.631 35.9893 151.943 35.6346 152.255 35.2794C152.469 35.0355 152.68 34.7884 152.884 34.5361C152.909 34.5056 152.933 34.4698 152.947 34.433C152.958 34.3998 152.961 34.3408 152.96 34.3061C152.957 34.1342 152.935 33.896 152.84 33.7467C152.753 33.6109 152.604 33.5241 152.45 33.4946L151.654 33.3876L151.616 33.3395C151.494 33.1852 151.56 32.8067 151.705 32.6952L151.754 32.6579L151.816 32.6615C152.022 32.6722 152.226 32.6918 152.433 32.6999C152.673 32.7091 152.913 32.7206 153.153 32.725C153.36 32.7292 153.567 32.7349 153.773 32.7349C154.234 32.7349 154.694 32.7221 155.155 32.7018C155.498 32.6869 155.79 32.6796 156.134 32.661C156.282 32.6801 156.311 32.7819 156.328 32.9073L156.334 32.9621C156.342 32.847 156.383 32.7373 156.471 32.672L156.515 32.6388C156.929 32.6388 157.368 32.6631 157.785 32.684C158.148 32.7017 158.514 32.7072 158.879 32.7072C159.211 32.7072 159.543 32.6984 159.875 32.6837C160.156 32.672 160.437 32.6636 160.717 32.6466C160.87 32.6375 161.033 32.6231 161.187 32.6231H161.266C161.366 32.6853 161.378 32.7746 161.404 32.9407C161.418 33.0131 161.419 33.0825 161.416 33.1559C161.411 33.2886 161.409 33.3197 161.342 33.3732L161.282 33.3857C161.103 33.422 160.924 33.4594 160.744 33.4975C160.611 33.5262 160.476 33.5584 160.347 33.6038C160.307 33.6176 160.282 33.6445 160.26 33.6803C160.239 33.7127 160.248 33.7665 160.257 33.8012C160.315 34.0381 160.376 34.3335 160.455 34.5649C160.591 34.9613 160.732 35.3557 160.876 35.7495C161.052 36.2313 161.23 36.7124 161.411 37.1932C161.597 37.6923 161.784 38.1911 161.973 38.6894C162.143 39.1368 162.315 39.5839 162.489 40.0305C162.616 40.3574 162.74 40.6855 162.868 41.0114C162.884 41.0519 162.9 41.0947 162.917 41.1383C163.14 40.6403 163.354 40.1378 163.564 39.634C163.833 38.9874 164.085 38.3334 164.326 37.6761C164.553 37.0566 164.771 36.4319 164.961 35.8004C165.113 35.2969 165.232 34.791 165.337 34.2763C165.355 34.1906 165.366 34.1071 165.358 34.0193C165.351 33.9355 165.314 33.8689 165.259 33.8062C165.178 33.7153 165.009 33.6576 164.896 33.6286C164.755 33.5921 164.61 33.5615 164.467 33.5315C164.271 33.4902 164.073 33.4607 163.875 33.4359L163.792 33.4254L163.751 33.3528C163.713 33.2857 163.702 33.2118 163.702 33.1355C163.702 33.0655 163.708 32.9929 163.726 32.9253C163.773 32.7472 163.723 32.8026 163.861 32.7119L163.903 32.6848H163.953C164.121 32.6848 164.296 32.6986 164.464 32.7083C164.738 32.7239 165.013 32.7331 165.288 32.7456C165.583 32.7589 165.88 32.7689 166.176 32.7689C166.438 32.7689 166.597 32.766 166.859 32.755C167.217 32.7407 167.734 32.6762 168.105 32.6281C168.287 32.6046 168.277 33.2726 168.112 33.3635L168.048 33.3766C167.711 33.432 167.257 33.6273 167 33.8577C166.821 34.018 166.696 34.2873 166.613 34.5079C166.111 35.8493 165.611 37.1922 165.083 38.5236C164.579 39.7946 164.048 41.0542 163.494 42.3044C162.944 43.5486 162.362 44.7792 161.755 45.997C161.121 47.2699 160.465 48.5323 159.762 49.7694C159.653 49.9619 159.533 50.15 159.416 50.3372C159.3 50.5219 159.184 50.7068 159.07 50.8924C158.979 51.04 158.89 51.1886 158.806 51.3398L158.777 51.3915L158.529 51.4905L158.475 51.4751C158.334 51.4359 158.199 51.3772 158.072 51.3056C157.937 51.2299 157.808 51.1437 157.688 51.047C157.588 50.9656 157.487 50.8749 157.405 50.7747L157.377 50.7386L157.37 50.6937C157.365 50.6571 157.36 50.6224 157.35 50.5871C157.332 50.5172 157.327 50.4427 157.346 50.3725L157.355 50.3409L157.375 50.3155C157.695 49.9089 158.004 49.4929 158.31 49.0755C158.719 48.5206 159.109 47.9505 159.493 47.3785C159.922 46.7421 160.332 46.0928 160.722 45.4321C161.094 44.8032 161.438 44.1581 161.75 43.4979C161.749 43.495 161.748 43.4924 161.747 43.4896C161.722 43.4256 161.692 43.3631 161.665 43.2997C161.644 43.2514 161.62 43.2004 161.601 43.1513C161.461 42.7753 161.331 42.3955 161.193 42.0187C161.012 41.5293 160.832 41.0401 160.649 40.5515C160.445 40.0083 160.247 39.4627 160.039 38.9205C159.832 38.3794 159.625 37.838 159.416 37.2979C159.229 36.8169 159.038 36.3379 158.844 35.8597C158.674 35.44 158.502 35.0156 158.312 34.6043C158.208 34.3774 158.101 34.0739 157.934 33.8859C157.816 33.7524 157.676 33.6623 157.509 33.6056C157.383 33.5631 157.256 33.5268 157.127 33.4983C156.927 33.4544 156.724 33.4202 156.522 33.3881L156.444 33.3755L156.405 33.3069C156.373 33.2518 156.349 33.1789 156.339 33.1008C156.335 33.1771 156.314 33.2771 156.266 33.3379L156.225 33.3886L156.161 33.3977C155.979 33.4254 155.855 33.4312 155.673 33.4623C155.528 33.4871 155.374 33.5158 155.235 33.5631C155.141 33.5954 155.065 33.6492 155.012 33.7333C154.957 33.8203 154.912 33.9172 154.894 34.019C154.877 34.1162 154.871 34.211 154.869 34.3089C154.859 34.6565 154.841 35.0026 154.835 35.3502C154.828 35.843 154.826 36.3366 154.826 36.8299C154.826 37.3922 154.829 37.9542 154.835 38.5163C154.842 39.066 154.845 39.6163 154.855 40.166C154.863 40.6238 154.874 41.0814 154.888 41.5392C154.896 41.8186 154.894 42.1198 154.924 42.3969C154.935 42.5018 154.97 42.6016 155.031 42.6878C155.077 42.7546 155.14 42.8186 155.217 42.851C155.441 42.9442 155.676 43.0069 155.916 43.0456C156.163 43.0855 156.219 43.1059 156.468 43.1299C156.5 43.1331 156.605 43.1495 156.621 43.1665C156.694 43.2396 156.671 43.4509 156.635 43.646C156.619 43.7277 156.592 43.8147 156.522 43.8664L156.478 43.8985H156.424C156.28 43.8985 156.323 43.8878 156.18 43.8797C155.941 43.8661 155.702 43.8591 155.463 43.8471C155.179 43.8325 154.894 43.8212 154.609 43.8147C154.332 43.8079 154.055 43.8074 153.778 43.8147C153.269 43.8278 152.658 43.8314 152.157 43.8904L152.064 43.9014L152.006 43.8285C151.905 43.7006 151.884 43.3757 151.937 43.2422L151.967 43.1665L152.045 43.1435C152.261 43.0808 152.513 43.0043 152.713 42.8991C152.81 42.8476 152.912 42.7734 152.957 42.67C153.013 42.5449 153.016 42.4363 153.016 42.3021V35.7949C152.886 35.9438 152.758 36.0953 152.626 36.2423C152.321 36.5842 152.013 36.9237 151.706 37.2632C151.345 37.6623 150.98 38.0584 150.617 38.4562C150.253 38.856 149.885 39.2519 149.519 39.6494C149.203 39.9905 148.887 40.3303 148.57 40.6698C148.357 40.8983 148.144 41.1294 147.925 41.3512C147.89 41.3856 147.866 41.4243 147.855 41.4713C147.835 41.5478 147.83 41.6311 147.831 41.7097C147.835 41.9652 147.849 42.2253 147.886 42.4786C147.897 42.558 147.927 42.716 147.98 42.7792C148.031 42.8393 148.097 42.8769 148.171 42.9027C148.306 42.9503 148.466 42.9839 148.605 43.0137C148.877 43.0725 149.156 43.1124 149.431 43.1469L149.507 43.1563L149.549 43.2198C149.59 43.2817 149.588 43.3626 149.586 43.4344C149.583 43.5047 149.577 43.5763 149.565 43.6455C149.549 43.7272 149.523 43.8142 149.453 43.8659L149.408 43.898H149.354C149.159 43.898 148.958 43.8847 148.764 43.8742C148.458 43.8583 148.152 43.85 147.846 43.8374C147.504 43.8233 147.162 43.8142 146.821 43.8142C146.523 43.8142 146.225 43.8238 145.927 43.8369C145.513 43.8557 145.145 43.8894 144.732 43.8894H144.652C144.516 43.8291 144.48 43.2266 144.562 43.1542V43.154ZM188.934 22.0158C189.075 21.8787 189.213 21.7317 189.346 21.5943C189.653 21.277 189.956 20.9547 190.259 20.6327C190.623 20.2446 190.986 19.8552 191.346 19.4643C191.714 19.0668 192.08 18.6688 192.443 18.2684C192.76 17.9182 193.073 17.5643 193.384 17.2089C193.598 16.9649 193.809 16.7179 194.014 16.4653C194.038 16.4356 194.062 16.399 194.076 16.3624C194.088 16.3293 194.09 16.2702 194.089 16.2358C194.086 16.0634 194.064 15.8255 193.969 15.6761C193.883 15.54 193.717 15.4296 193.563 15.4003L192.784 15.276C192.628 15.0799 192.625 14.7508 192.821 14.6009L192.869 14.5638L192.931 14.567C193.392 14.5912 193.799 14.6453 194.282 14.6544C194.489 14.6586 194.696 14.6641 194.903 14.6641C195.364 14.6641 195.824 14.6516 196.284 14.6312C196.628 14.6163 196.971 14.5938 197.315 14.5753L197.432 14.574L197.48 14.6701C197.5 14.7176 197.505 14.7858 197.512 14.8367C197.52 14.9002 197.525 14.9644 197.523 15.0284C197.519 15.1047 197.506 15.1676 197.457 15.2285L197.416 15.2791L197.352 15.2885C197.17 15.316 196.984 15.3596 196.803 15.3904C196.657 15.4152 196.503 15.4439 196.364 15.4917C196.27 15.5241 196.195 15.5774 196.141 15.6617C196.086 15.749 196.041 15.8456 196.024 15.9475C196.007 16.0446 196.001 16.1394 195.998 16.2373C195.988 16.5847 195.971 16.9307 195.965 17.2783C195.957 17.7717 195.956 18.2653 195.956 18.7581C195.956 19.3204 195.958 19.8826 195.965 20.4447C195.972 20.9947 195.974 21.5447 195.984 22.0944C195.992 22.5522 196.003 23.01 196.017 23.4676C196.025 23.747 196.024 24.0484 196.053 24.3253C196.064 24.43 196.099 24.5297 196.16 24.6164C196.207 24.6828 196.27 24.747 196.347 24.7789C196.57 24.8724 196.806 24.9351 197.045 24.9737C197.292 25.0139 197.541 25.0513 197.79 25.0756L197.836 25.08L197.876 25.1001C198.029 25.2124 197.99 25.3924 197.956 25.5747C197.941 25.6559 197.914 25.7431 197.845 25.7945L197.8 25.8272H197.746C197.602 25.8272 197.453 25.8165 197.309 25.8084C197.07 25.7945 196.831 25.7878 196.592 25.7752C196.308 25.7609 196.023 25.7494 195.739 25.7428C195.462 25.736 195.184 25.7355 194.907 25.7428C194.566 25.7517 194.225 25.7679 193.883 25.7844C193.688 25.7943 193.484 25.8029 193.289 25.8259C193.186 25.8379 193.206 25.8426 193.139 25.7661C193.099 25.7141 193.075 25.6538 193.061 25.5903C193.048 25.531 193.041 25.4725 193.039 25.4117C193.036 25.3519 193.044 25.2236 193.066 25.1675L193.096 25.0918L193.174 25.069C193.39 25.0061 193.643 24.9774 193.842 24.8724C193.939 24.8212 194.041 24.747 194.086 24.6433C194.142 24.5188 194.152 24.3443 194.152 24.2098L194.145 17.7231C194.015 17.8725 193.887 18.0237 193.756 18.1707C193.45 18.5128 193.143 18.8521 192.835 19.1916C192.474 19.5907 192.109 19.9866 191.746 20.3846C191.382 20.7842 191.014 21.1806 190.648 21.5778C190.333 21.9192 190.016 22.2587 189.7 22.5979C189.487 22.8267 189.273 23.0578 189.054 23.2801C189.02 23.314 188.996 23.3527 188.984 23.4C188.965 23.4762 188.96 23.5595 188.961 23.6381C188.965 23.8936 188.978 24.1537 189.016 24.4073C189.027 24.4864 189.056 24.6441 189.109 24.7076C189.16 24.7679 189.227 24.805 189.3 24.8311C189.435 24.8789 189.595 24.9123 189.735 24.9421C190.006 25.0006 190.285 25.0411 190.56 25.0756L190.636 25.0847L190.678 25.1482C190.72 25.2101 190.718 25.291 190.715 25.3629C190.713 25.4331 190.707 25.5047 190.694 25.5741C190.679 25.6553 190.652 25.7426 190.582 25.794L190.538 25.8267H190.483C190.289 25.8267 190.088 25.8131 189.893 25.8026C189.587 25.7867 189.281 25.7786 188.975 25.7658C188.634 25.7515 188.292 25.7423 187.95 25.7423C187.652 25.7423 187.354 25.7525 187.056 25.7656C186.77 25.7786 186.482 25.7875 186.195 25.8026C185.994 25.8136 185.787 25.8267 185.586 25.8267H185.505L185.455 25.7635C185.407 25.7029 185.388 25.6277 185.382 25.5522C185.377 25.484 185.377 25.4166 185.382 25.3485C185.388 25.273 185.407 25.1978 185.455 25.1369L185.496 25.0858L185.561 25.0764C185.745 25.0481 185.928 25.0171 186.11 24.9792C186.249 24.951 186.39 24.9212 186.527 24.8836C186.648 24.8502 186.779 24.798 186.865 24.7029C186.954 24.6063 186.992 24.4373 187.012 24.3125C187.055 24.0291 187.052 23.7026 187.052 23.4162V19.5152C187.052 18.9485 187.054 18.3812 187.047 17.8148C187.041 17.2705 187.021 16.727 186.996 16.1841C186.988 16.0214 186.953 15.8479 186.863 15.7095C186.781 15.5837 186.65 15.527 186.507 15.4959C186.356 15.4633 186.201 15.428 186.048 15.404C185.909 15.3826 185.767 15.3718 185.626 15.3588L185.499 15.3465L185.478 15.2212C185.462 15.1274 185.456 15.031 185.462 14.936C185.468 14.8315 185.502 14.7291 185.565 14.6456L185.617 14.5769L185.704 14.5792C185.957 14.5876 186.212 14.6053 186.464 14.6213C186.948 14.6526 187.438 14.6615 187.922 14.6633C188.248 14.6649 188.574 14.6542 188.9 14.6398C189.18 14.6278 189.462 14.6121 189.742 14.5959C189.902 14.5865 190.07 14.5722 190.23 14.5722H190.317L190.367 14.6435C190.432 14.737 190.459 14.8574 190.462 14.9699C190.464 15.072 190.465 15.1334 190.401 15.2175L190.358 15.2757L190.284 15.2828C189.954 15.3136 189.25 15.3909 189.075 15.662C188.966 15.8299 188.937 16.1525 188.933 16.3476C188.919 16.985 188.935 17.6238 188.937 18.2608C188.94 18.9378 188.947 19.6147 188.947 20.2914C188.947 20.8662 188.939 21.4405 188.934 22.015V22.0158ZM160.541 23.8405C160.084 24.3555 159.563 24.8306 158.974 25.191C158.504 25.4785 157.991 25.7321 157.457 25.8742C157.04 25.9849 156.597 26.0612 156.164 26.0573C155.389 26.0502 154.604 25.9215 153.915 25.5509C153.276 25.2075 152.759 24.7251 152.342 24.1351C151.972 23.6105 151.701 23.032 151.521 22.4162C151.334 21.7755 151.243 21.1153 151.243 20.4478C151.243 19.7813 151.338 19.1268 151.546 18.493C151.75 17.8704 152.064 17.2964 152.476 16.7853C152.915 16.2366 153.448 15.7803 154.055 15.4225C154.413 15.2115 154.794 15.0357 155.179 14.8788C155.573 14.7176 155.979 14.5766 156.391 14.4693C156.756 14.3745 157.138 14.3079 157.515 14.305C157.806 14.3032 158.099 14.317 158.387 14.3533C158.612 14.3815 158.842 14.4176 159.059 14.4802C159.249 14.5343 159.435 14.6027 159.614 14.685C159.717 14.733 159.818 14.7983 159.916 14.8571C160.037 14.9305 160.151 15.0159 160.254 15.113C160.354 15.2078 160.443 15.323 160.489 15.4546L160.498 15.481V15.5087C160.498 15.5659 160.487 15.6275 160.477 15.6839C160.433 15.9234 160.339 16.0548 160.185 16.2444C160.095 16.3546 159.999 16.4591 159.894 16.5539C159.811 16.628 159.711 16.7132 159.608 16.756C159.467 16.8148 159.347 16.8182 159.215 16.7508L159.191 16.7382L159.172 16.7192C158.98 16.5236 158.761 16.3483 158.538 16.1916C158.254 15.9921 157.929 15.8459 157.602 15.7307C157.205 15.5907 156.782 15.5348 156.363 15.5346C155.876 15.534 155.411 15.6354 154.985 15.8733C154.592 16.0921 154.263 16.3899 154.003 16.7557C153.733 17.1336 153.536 17.5505 153.408 17.996C153.277 18.4473 153.208 18.9116 153.208 19.3815C153.208 20.0741 153.281 20.7774 153.473 21.4452C153.628 21.9816 153.869 22.4963 154.237 22.9218C154.622 23.3678 155.081 23.7797 155.624 24.0244C156.158 24.2654 156.737 24.3529 157.319 24.3511C157.647 24.3501 157.974 24.2976 158.29 24.2119C158.658 24.1129 159.008 23.9643 159.34 23.7786C159.695 23.5791 160.005 23.3114 160.296 23.0273C160.357 22.9675 160.367 22.9596 160.458 22.9711C160.584 22.9865 160.667 23.0685 160.667 23.2263C160.667 23.3164 160.654 23.4112 160.642 23.5005C160.629 23.6 160.61 23.7089 160.567 23.8008L160.541 23.8408L160.541 23.8405ZM146.747 20.5H141.59C141.59 21.0931 141.592 21.6862 141.595 22.2796C141.597 22.8455 141.603 23.412 141.619 23.9776C141.624 24.1777 141.65 24.4475 141.751 24.6251C141.834 24.7692 141.995 24.8434 142.148 24.8901C142.292 24.934 142.439 24.968 142.587 24.993C142.787 25.0267 142.988 25.0555 143.19 25.0808L143.271 25.0905L143.312 25.1602C143.366 25.2503 143.381 25.3568 143.372 25.4597C143.363 25.5801 143.318 25.6901 143.234 25.7789L143.186 25.8319H143.113C142.932 25.8319 142.745 25.8181 142.564 25.8081C142.281 25.7922 141.996 25.7833 141.712 25.771C141.391 25.7569 141.07 25.7475 140.748 25.7475C140.451 25.7475 140.153 25.7577 139.855 25.771C139.552 25.7841 139.249 25.793 138.946 25.8081C138.713 25.8194 138.477 25.8319 138.243 25.8319H138.167L138.117 25.7742C138.064 25.7115 138.036 25.6376 138.023 25.5572C138.012 25.4877 138.006 25.4182 138.012 25.348C138.018 25.2746 138.038 25.2012 138.084 25.1424L138.122 25.0954L139.109 24.8865C139.234 24.8604 139.355 24.8123 139.452 24.7277C139.53 24.6603 139.572 24.5741 139.597 24.4754C139.637 24.3179 139.648 24.1383 139.653 23.9769C139.669 23.5379 139.689 23.0999 139.696 22.6611C139.703 22.1814 139.707 21.7019 139.71 21.2224C139.712 20.7763 139.71 20.3308 139.71 19.8855C139.71 19.4794 139.704 19.073 139.7 18.6667C139.696 18.2279 139.686 17.7897 139.672 17.3512C139.66 16.9639 139.644 16.5766 139.626 16.1895C139.618 16.0279 139.584 15.8532 139.493 15.7163C139.318 15.451 138.583 15.3272 138.252 15.2961L138.125 15.2836L138.104 15.1585C138.088 15.0647 138.086 15.0365 138.092 14.9412C138.098 14.8367 138.132 14.7244 138.195 14.6409L138.247 14.5719L138.334 14.5745C138.586 14.5826 138.841 14.6108 139.094 14.627C139.578 14.6584 140.067 14.6667 140.552 14.6688C140.878 14.6701 141.204 14.6597 141.529 14.6453C141.81 14.6333 142.085 14.6106 142.365 14.5941C142.525 14.585 142.693 14.5709 142.853 14.5709H142.94L142.99 14.6422C143.055 14.7354 143.089 14.8628 143.091 14.9754C143.094 15.0773 143.084 15.1185 143.021 15.2026L142.977 15.2614L142.903 15.2682C142.489 15.3068 141.967 15.3431 141.703 15.696C141.613 15.8156 141.59 15.9801 141.59 16.1253V19.411H144.042C144.435 19.411 144.828 19.4136 145.22 19.4162C145.552 19.418 145.883 19.4253 146.214 19.4253C146.393 19.4253 146.57 19.4204 146.748 19.4138C146.751 19.2488 146.754 19.0845 146.752 18.9197C146.749 18.6426 146.744 18.3655 146.738 18.0887C146.731 17.7949 146.729 17.5006 146.719 17.2065C146.711 16.9628 146.706 16.7192 146.7 16.4753C146.697 16.3598 146.69 16.2389 146.691 16.1237C146.693 15.9827 146.67 15.8182 146.581 15.7035C146.487 15.5839 146.304 15.5124 146.163 15.4708C146.089 15.4489 146.012 15.4327 145.936 15.4189C145.827 15.399 145.719 15.381 145.61 15.3627C145.507 15.346 145.405 15.3269 145.303 15.3055L145.215 15.2872C145.166 15.1742 145.163 15.1561 145.157 15.0287C145.149 14.8344 145.122 14.6905 145.298 14.6027L145.355 14.5842L145.396 14.585C145.71 14.591 146.024 14.6085 146.337 14.6273C146.792 14.655 147.247 14.667 147.702 14.6691C148.151 14.6712 148.6 14.6581 149.049 14.6364C149.337 14.6228 149.625 14.6069 149.913 14.5852L149.975 14.5808C150.134 14.6586 150.112 14.6364 150.129 14.8506C150.134 14.9198 150.134 14.9895 150.128 15.0585C150.118 15.189 150.163 15.2674 149.956 15.3063L149.505 15.3901C149.34 15.4217 149.122 15.457 148.971 15.5309C148.865 15.5829 148.79 15.6615 148.736 15.7659C148.664 15.9085 148.636 16.0895 148.628 16.2467C148.616 16.464 148.616 16.6855 148.614 16.9033C148.611 17.2227 148.607 17.5424 148.604 17.8612C148.602 18.2214 148.6 18.581 148.6 18.9409C148.6 19.2838 148.6 19.627 148.6 19.9701C148.6 20.3574 148.6 20.745 148.604 21.1326C148.609 21.53 148.609 21.9275 148.614 22.3253C148.618 22.6729 148.62 23.0207 148.623 23.3684C148.625 23.6107 148.628 23.8531 148.628 24.0952C148.628 24.2456 148.649 24.4214 148.727 24.5532C148.786 24.6538 148.863 24.7272 148.968 24.7789C149.094 24.8421 149.235 24.8839 149.372 24.9155C149.522 24.9502 149.673 24.9826 149.825 25.0069C149.983 25.0322 150.141 25.0505 150.297 25.0831C150.547 25.1356 150.455 25.2837 150.457 25.3472C150.46 25.4284 150.459 25.5065 150.446 25.5869C150.423 25.7199 150.474 25.7784 150.274 25.8275L150.255 25.8322H150.235C149.977 25.8322 149.718 25.823 149.461 25.8084C149.199 25.7938 148.936 25.7844 148.673 25.771C148.378 25.7562 148.082 25.7478 147.786 25.7478C147.539 25.7478 147.293 25.753 147.046 25.7619C146.794 25.7705 146.543 25.7799 146.291 25.7901C146.084 25.7979 145.877 25.8063 145.67 25.8178C145.551 25.8243 145.428 25.8322 145.309 25.8322H145.23L145.18 25.7713C145.107 25.683 145.08 25.5726 145.077 25.46C145.074 25.3602 145.089 25.2448 145.138 25.1555L145.176 25.0871L145.253 25.0724C145.369 25.0505 145.486 25.0317 145.603 25.0152C145.816 24.9847 146.133 24.9447 146.334 24.8891C146.463 24.8538 146.57 24.7859 146.64 24.6721C146.727 24.531 146.745 24.3101 146.747 24.1492C146.751 23.7771 146.761 23.4049 146.761 23.033C146.761 22.647 146.754 22.2602 146.752 21.8743C146.749 21.4162 146.747 20.9584 146.747 20.5003V20.5ZM128.491 22.0202C128.632 21.8834 128.769 21.7366 128.902 21.5992C129.21 21.2814 129.513 20.9597 129.815 20.6371C130.18 20.2496 130.542 19.8602 130.903 19.469C131.27 19.0715 131.637 18.6732 132 18.2731C132.318 17.9231 132.629 17.569 132.941 17.2136C133.155 16.9699 133.366 16.7223 133.57 16.47C133.594 16.44 133.619 16.404 133.632 16.3669C133.645 16.334 133.647 16.2747 133.646 16.24C133.643 16.0684 133.621 15.8304 133.526 15.6805C133.44 15.5447 133.287 15.4755 133.133 15.4463L132.341 15.2945L132.302 15.2457C132.188 15.1018 132.233 14.7354 132.384 14.6197L132.433 14.5824L132.495 14.5858C132.702 14.5967 132.912 14.633 133.119 14.6409C133.359 14.65 133.599 14.6547 133.839 14.6594C134.046 14.6633 134.252 14.6688 134.459 14.6688C134.92 14.6688 135.38 14.6563 135.841 14.6362C136.185 14.6213 136.528 14.603 136.871 14.585L136.989 14.5787L137.034 14.6871C137.053 14.7344 137.062 14.7908 137.068 14.8417C137.077 14.9049 137.082 14.9691 137.079 15.0331C137.076 15.1094 137.059 15.1856 137.01 15.247L136.969 15.2974L136.905 15.3068C136.723 15.3345 136.541 15.364 136.359 15.3954C136.214 15.4202 136.06 15.4486 135.921 15.4964C135.827 15.5285 135.751 15.5823 135.698 15.6664C135.642 15.7537 135.598 15.85 135.58 15.9522C135.564 16.0493 135.557 16.1438 135.555 16.2423C135.545 16.5894 135.527 16.9354 135.521 17.283C135.514 17.7764 135.512 18.27 135.512 18.763C135.512 19.3251 135.514 19.8873 135.521 20.4494C135.529 20.9991 135.531 21.5496 135.541 22.0991C135.548 22.5569 135.56 23.0147 135.573 23.4723C135.582 23.7517 135.58 24.0529 135.61 24.3302C135.621 24.4347 135.656 24.5347 135.717 24.6211C135.764 24.6877 135.826 24.7792 135.903 24.8113C136.335 24.9915 136.86 25.0766 137.346 25.08L137.392 25.0844L137.429 25.1116C137.618 25.2498 137.556 25.7345 137.357 25.8319H137.302C137.158 25.8319 137.009 25.8212 136.866 25.8128C136.627 25.7992 136.388 25.7925 136.149 25.7802C135.865 25.7658 135.58 25.7541 135.295 25.7475C135.018 25.741 134.741 25.7402 134.463 25.7475C134.122 25.7564 133.781 25.7729 133.44 25.7893C133.245 25.799 133.041 25.8073 132.846 25.8306C132.814 25.8319 132.788 25.8363 132.765 25.8285C132.688 25.8016 132.645 25.7162 132.618 25.595C132.604 25.5357 132.598 25.477 132.595 25.4166C132.592 25.3568 132.594 25.2419 132.616 25.1858L132.646 25.1103L132.724 25.0873C132.94 25.0244 133.193 24.9479 133.392 24.8429C133.489 24.7917 133.591 24.7173 133.637 24.6138C133.692 24.4885 133.702 24.3148 133.702 24.1803V17.7278C133.572 17.8767 133.444 18.0284 133.313 18.1757C133.007 18.5175 132.699 18.8568 132.392 19.1966C132.031 19.5954 131.666 19.9915 131.303 20.3895C130.939 20.7889 130.571 21.1853 130.204 21.5825C129.889 21.9236 129.573 22.2634 129.256 22.6026C129.043 22.8314 128.83 23.0623 128.61 23.2845C128.576 23.3185 128.552 23.3574 128.541 23.4044C128.522 23.4812 128.516 23.5642 128.517 23.6426C128.521 23.898 128.535 24.1586 128.572 24.4117C128.583 24.4908 128.613 24.6488 128.666 24.7126C128.717 24.7726 128.783 24.8097 128.857 24.8358C128.992 24.8836 129.152 24.917 129.291 24.9468C129.563 25.0053 129.842 25.0458 130.117 25.0803L130.192 25.0897L130.234 25.1526C130.277 25.215 130.274 25.2955 130.272 25.3673C130.269 25.4381 130.263 25.5096 130.25 25.5786C130.236 25.66 130.209 25.7475 130.139 25.799L130.095 25.8314H130.04C129.845 25.8314 129.645 25.8175 129.45 25.8076C129.144 25.7917 128.838 25.7831 128.532 25.7705C128.19 25.7564 127.848 25.747 127.506 25.747C127.208 25.747 126.911 25.7569 126.613 25.7703C126.326 25.7831 126.039 25.7919 125.752 25.8076C125.55 25.8183 125.344 25.8329 125.142 25.8329H125.062L125.011 25.7697C124.963 25.7091 124.945 25.6324 124.939 25.5569C124.933 25.4887 124.933 25.4211 124.939 25.3534C124.945 25.2777 124.963 25.2025 125.011 25.1419L125.052 25.0905L125.118 25.0808C125.301 25.0531 125.485 25.022 125.667 24.9842C125.806 24.9554 125.947 24.9257 126.084 24.8883C126.205 24.8552 126.336 24.8021 126.422 24.7079C126.51 24.6107 126.549 24.4423 126.568 24.3172C126.612 24.0338 126.609 23.7073 126.609 23.4206V19.5199C126.609 18.9532 126.611 18.3859 126.604 17.8192C126.597 17.2755 126.573 16.6615 126.547 16.1185C126.54 15.9555 126.505 15.7821 126.414 15.6442C126.332 15.5181 126.201 15.4617 126.058 15.4304C125.907 15.3977 125.753 15.3624 125.599 15.3384C125.46 15.317 125.318 15.3063 125.178 15.293C125.077 15.2739 125.045 15.2507 125.029 15.1572C125.013 15.0634 125.013 15.0357 125.019 14.9404C125.025 14.8359 125.059 14.7205 125.122 14.6367L125.174 14.5677L125.26 14.5701C125.513 14.5784 125.768 14.5965 126.021 14.6127C126.505 14.644 126.994 14.6659 127.479 14.668C127.805 14.6693 128.131 14.6589 128.457 14.6445C128.737 14.6325 129.019 14.6236 129.298 14.6074C129.459 14.598 129.627 14.5839 129.787 14.5839H129.874L129.923 14.6552C129.988 14.7487 130.016 14.8621 130.019 14.9746C130.021 15.0765 130.015 15.1347 129.951 15.2188L129.907 15.277L129.834 15.2841C129.692 15.2974 129.55 15.3141 129.41 15.3423C129.258 15.3729 129.107 15.4142 128.955 15.4489C128.818 15.4805 128.709 15.5951 128.632 15.714C128.522 15.8824 128.493 16.1572 128.489 16.3525C128.476 16.9897 128.492 17.6283 128.494 18.2658C128.496 18.9425 128.503 19.6196 128.503 20.2961C128.503 20.8709 128.496 21.4452 128.491 22.0195V22.0202ZM120.402 24.6932C120.433 24.342 120.429 23.9711 120.433 23.618C120.438 23.0855 120.437 22.5535 120.433 22.0215C120.427 21.3864 120.428 20.7515 120.428 20.1172C120.428 19.8646 120.425 19.6123 120.423 19.3606C120.421 19.0221 120.421 18.6834 120.418 18.3449C120.416 18.0025 120.412 17.6594 120.409 17.3165C120.408 17.0456 120.408 16.7743 120.405 16.5035C120.404 16.3849 120.406 16.2588 120.4 16.1407C120.394 16.0195 120.369 15.8986 120.314 15.79C120.277 15.7158 120.227 15.6563 120.158 15.6092C120.072 15.5505 119.968 15.5077 119.868 15.4766C119.789 15.4512 119.707 15.4319 119.627 15.4149C119.509 15.3901 119.391 15.3677 119.273 15.3452C119.168 15.3254 119.063 15.294 118.958 15.2721C118.807 15.2368 118.812 15.1444 118.806 15.0088C118.798 14.8119 118.794 14.6696 118.971 14.5808L119.008 14.5628L119.049 14.5633C119.353 14.5693 119.659 14.5865 119.962 14.6059C120.407 14.6346 120.853 14.6456 121.299 14.6476C121.506 14.6484 121.714 14.6484 121.922 14.6424C122.079 14.6382 122.236 14.6317 122.393 14.6244C122.56 14.6163 122.727 14.609 122.894 14.6009C123.138 14.5886 123.423 14.5873 123.662 14.5549C123.782 14.6174 123.815 14.6894 123.826 14.813C123.839 14.8858 123.839 14.9605 123.826 15.0331C123.812 15.1167 123.779 15.1937 123.713 15.2491L123.674 15.2629L123.206 15.3421C123.044 15.3635 122.88 15.3988 122.728 15.4583C122.602 15.5079 122.506 15.587 122.429 15.6986C122.326 15.8443 122.289 16.0503 122.28 16.2245C122.269 16.4426 122.268 16.6636 122.266 16.8816C122.264 17.2013 122.259 17.5207 122.257 17.8401C122.254 18.1997 122.252 18.5596 122.252 18.9197C122.252 19.2626 122.252 19.6053 122.252 19.9484C122.252 20.3611 122.253 20.7735 122.257 21.1861C122.262 21.6382 122.266 22.0902 122.271 22.5423C122.275 22.9521 122.282 23.3616 122.29 23.7713C122.295 24.0576 122.29 24.3394 122.304 24.6141C122.523 24.6261 122.732 24.6021 122.95 24.5906C123.175 24.5791 123.4 24.5674 123.624 24.5532L123.699 24.5488C123.793 24.6091 123.857 24.7115 123.857 24.8311V24.8625L123.845 24.8917C123.64 25.4117 123.504 26.0118 123.388 26.5582C123.202 27.4417 123.057 28.3393 122.926 29.2333L122.919 29.2792L122.889 29.315C122.76 29.4699 122.287 29.52 122.149 29.3349L122.119 29.2946L122.117 29.2445C122.102 28.9355 122.085 28.6274 122.061 28.3189C122.036 27.998 122.006 27.6773 121.968 27.3573C121.935 27.0797 121.892 26.8026 121.838 26.5282C121.804 26.3563 121.758 26.1557 121.682 25.9969C121.644 25.9168 121.588 25.8557 121.514 25.8055C121.451 25.7624 121.376 25.7266 121.298 25.7266H114.401C114.103 25.7266 113.804 25.7389 113.506 25.7502C113.204 25.7611 112.901 25.7721 112.598 25.787C112.365 25.7985 112.129 25.8107 111.895 25.8107C111.847 25.8021 111.805 25.7818 111.77 25.7533C111.716 25.6903 111.688 25.6164 111.675 25.5357C111.665 25.4668 111.658 25.3971 111.665 25.3268C111.671 25.2534 111.69 25.1803 111.737 25.1213L111.778 25.0727L111.845 25.0602C112.034 25.0335 112.223 25.0037 112.412 24.9719C112.55 24.9486 112.693 24.9181 112.825 24.8713C112.928 24.835 113.068 24.7747 113.144 24.6943C113.209 24.6261 113.245 24.5438 113.261 24.4519C113.29 24.2905 113.3 24.1192 113.306 23.9557C113.321 23.517 113.342 23.079 113.348 22.6402C113.355 22.1605 113.36 21.6807 113.362 21.2012C113.364 20.7557 113.362 20.3102 113.362 19.8646C113.362 19.4601 113.357 19.055 113.352 18.6502C113.348 18.2151 113.339 17.7795 113.325 17.3441C113.312 16.9521 113.297 16.5601 113.278 16.1687C113.27 16.0054 113.235 15.7774 113.145 15.6395C113.063 15.5134 112.932 15.457 112.789 15.4257C112.637 15.393 112.483 15.3577 112.33 15.3337C112.191 15.3123 112.049 15.3016 111.908 15.2885L111.781 15.2763L111.76 15.1509C111.744 15.0574 111.738 15.0154 111.744 14.9203C111.75 14.8158 111.784 14.714 111.847 14.6299L111.899 14.5609L111.986 14.5636C112.238 14.5719 112.493 14.5899 112.746 14.6061C113.23 14.6372 113.719 14.6458 114.205 14.6479C114.531 14.6492 114.856 14.6385 115.182 14.6244C115.462 14.6124 115.744 14.6033 116.024 14.5871C116.184 14.5779 116.352 14.5636 116.512 14.5636H116.599L116.649 14.6349C116.714 14.7283 116.741 14.8417 116.744 14.9545C116.746 15.0561 116.75 15.1177 116.687 15.2018L116.643 15.2603L116.569 15.2674C116.428 15.2807 116.286 15.2974 116.146 15.3254C115.993 15.3557 115.842 15.3985 115.69 15.4324C115.605 15.4512 115.528 15.4841 115.462 15.5408C115.392 15.6006 115.35 15.7033 115.325 15.7889C115.275 15.9616 115.246 16.2097 115.243 16.3883C115.24 16.5494 115.24 16.7116 115.238 16.8727C115.235 17.1485 115.235 17.4243 115.233 17.7004C115.231 18.0203 115.229 18.3405 115.224 18.6601C115.22 18.9579 115.222 19.2548 115.219 19.5525C115.218 19.7588 115.215 19.9662 115.215 20.173C115.215 20.4164 115.215 20.6593 115.215 20.9022C115.215 21.225 115.217 21.5473 115.219 21.8698C115.222 22.2127 115.226 22.5556 115.229 22.8988C115.231 23.203 115.235 23.5076 115.243 23.8123C115.248 24.0184 115.259 24.2231 115.271 24.4295C115.274 24.4908 115.288 24.5399 115.332 24.5851C115.374 24.6287 115.424 24.6608 115.485 24.6666C115.767 24.6917 116.063 24.6877 116.346 24.6935C116.732 24.7011 117.118 24.7034 117.504 24.7079C117.908 24.7123 118.313 24.7123 118.717 24.7123C119.067 24.7123 119.416 24.7131 119.765 24.7079C119.977 24.7045 120.189 24.6977 120.401 24.6935L120.402 24.6932ZM101.99 21.9986C102.13 21.862 102.268 21.7149 102.401 21.5776C102.709 21.2603 103.012 20.938 103.314 20.6155C103.679 20.2279 104.041 19.8385 104.402 19.4473C104.769 19.0501 105.135 18.652 105.499 18.2517C105.816 17.9017 106.128 17.5473 106.44 17.1919C106.654 16.948 106.865 16.7009 107.069 16.4486C107.093 16.4183 107.118 16.3825 107.132 16.3455C107.143 16.3126 107.145 16.2533 107.145 16.2188C107.142 16.0467 107.12 15.8088 107.025 15.6591C106.938 15.5233 106.786 15.4541 106.632 15.4246L105.839 15.2726L105.801 15.2243C105.68 15.0713 105.742 14.7059 105.886 14.5941L105.935 14.557L105.997 14.5604C106.204 14.5714 106.411 14.5805 106.618 14.5884C107.045 14.6051 107.542 14.6474 107.958 14.6474C108.419 14.6474 108.879 14.6349 109.339 14.6145C109.683 14.5996 110.027 14.5818 110.37 14.5636L110.487 14.557L110.532 14.6654C110.552 14.7129 110.561 14.7694 110.567 14.8198C110.575 14.8832 110.581 14.9475 110.578 15.0117C110.575 15.0877 110.558 15.1645 110.508 15.2253L110.468 15.2757L110.404 15.2851C110.222 15.3128 110.04 15.3429 109.858 15.3737C109.712 15.3987 109.559 15.4272 109.419 15.475C109.325 15.5071 109.25 15.5607 109.196 15.645C109.141 15.732 109.097 15.8284 109.079 15.9305C109.062 16.0276 109.056 16.1224 109.054 16.2206C109.044 16.5682 109.026 16.9143 109.02 17.2619C109.013 17.7547 109.011 18.2483 109.011 18.7416C109.011 19.3036 109.014 19.8657 109.02 20.4279C109.027 20.9777 109.03 21.5277 109.039 22.0777C109.048 22.5355 109.059 22.9928 109.072 23.4509C109.08 23.7301 109.079 24.0314 109.108 24.3085C109.12 24.4133 109.154 24.513 109.215 24.5995C109.262 24.6663 109.325 24.7301 109.402 24.7624C109.626 24.8557 109.861 24.9184 110.1 24.957C110.348 24.997 110.596 25.0346 110.845 25.0583L110.927 25.0743C111.079 25.1868 111.046 25.3746 111.012 25.5574C110.996 25.6392 110.97 25.7264 110.9 25.7781C110.874 25.7998 110.842 25.8147 110.803 25.8134C110.659 25.8134 110.508 25.7995 110.365 25.7912C110.126 25.7778 109.887 25.7708 109.648 25.7585C109.364 25.7439 109.079 25.7327 108.794 25.7261C108.517 25.7193 108.24 25.7188 107.963 25.7261C107.621 25.735 107.28 25.7515 106.939 25.7677C106.744 25.7776 106.54 25.7862 106.345 25.8087C106.254 25.8199 106.251 25.8139 106.214 25.7757L106.195 25.7541C106.106 25.641 106.056 25.2918 106.111 25.1539L106.141 25.0784L106.219 25.0555C106.383 25.0346 107.067 24.8476 107.135 24.647C107.19 24.5219 107.201 24.348 107.201 24.2135V17.7061C107.071 17.8555 106.943 18.0067 106.811 18.154C106.506 18.4959 106.198 18.8351 105.89 19.1749C105.53 19.5737 105.165 19.9696 104.802 20.3676C104.438 20.7674 104.07 21.1636 103.703 21.5611C103.388 21.9022 103.072 22.2417 102.755 22.5815C102.542 22.81 102.329 23.0409 102.109 23.2628C102.075 23.2971 102.051 23.3357 102.039 23.383C102.02 23.4595 102.015 23.5426 102.016 23.6214C102.02 23.8768 102.034 24.137 102.071 24.39C102.082 24.4692 102.111 24.6277 102.165 24.6906C102.216 24.7509 102.282 24.7883 102.356 24.8147C102.491 24.8622 102.65 24.8956 102.79 24.9257C103.061 24.9839 103.341 25.0241 103.616 25.0589L103.691 25.0677L103.734 25.1315C103.775 25.1931 103.773 25.2741 103.771 25.3459C103.768 25.4164 103.762 25.4879 103.75 25.5569C103.734 25.6386 103.708 25.7259 103.637 25.7776L103.593 25.8097H103.539C103.344 25.8097 103.143 25.7961 102.949 25.7859C102.643 25.7697 102.336 25.7614 102.031 25.7491C101.689 25.7347 101.347 25.7256 101.005 25.7256C100.707 25.7256 100.409 25.7353 100.112 25.7486C99.8248 25.7614 99.5376 25.7705 99.2505 25.7859C99.0487 25.7966 98.8426 25.8097 98.6407 25.8097H98.5603L98.5099 25.7468C98.4624 25.6862 98.4436 25.611 98.4375 25.5352C98.4321 25.4673 98.4321 25.3997 98.4375 25.3318C98.4436 25.2563 98.4624 25.1811 98.5099 25.1202L98.5512 25.0688L98.6162 25.0591C98.8 25.0314 98.9834 25.0004 99.1654 24.9625C99.3043 24.934 99.4451 24.904 99.5825 24.8669C99.7039 24.8337 99.8345 24.781 99.921 24.6862C100.009 24.5893 100.048 24.4206 100.067 24.296C100.11 24.0124 100.107 23.6859 100.107 23.3994V19.4985C100.107 18.9317 100.11 18.3645 100.103 17.7978C100.096 17.254 100.074 16.6419 100.048 16.0987C100.04 15.9357 100.005 15.7625 99.9152 15.6241C99.8332 15.4985 99.7021 15.4416 99.5592 15.4105C99.4072 15.3776 99.2534 15.3423 99.0999 15.3188C98.9607 15.2972 98.8186 15.2865 98.6783 15.2734L98.5512 15.2609L98.53 15.1358C98.5141 15.0417 98.5115 15.0141 98.5169 14.919C98.5235 14.8145 98.5577 14.7127 98.6206 14.6286L98.6726 14.5596L98.759 14.5622C99.0118 14.5706 99.2667 14.5886 99.5195 14.6048C100.004 14.6359 100.493 14.6445 100.978 14.6466C101.304 14.6479 101.629 14.6372 101.955 14.6231C102.236 14.6111 102.517 14.6019 102.797 14.5858C102.957 14.5766 103.125 14.5622 103.285 14.5622H103.372L103.422 14.6335C103.487 14.727 103.514 14.8404 103.517 14.9532C103.519 15.0548 103.51 15.1645 103.447 15.2488L103.402 15.3071L103.329 15.3141C103.187 15.3272 103.045 15.3442 102.906 15.3718C102.753 15.4024 102.602 15.4442 102.45 15.4787C102.313 15.5103 102.207 15.5735 102.13 15.6926C102.021 15.861 101.992 16.1355 101.988 16.3308C101.975 16.9681 101.99 17.6069 101.993 18.2444C101.995 18.9208 102.002 19.598 102.002 20.2744C102.002 20.8492 101.995 21.4235 101.99 21.9978V21.9986ZM91.172 15.2269C91.2386 15.1553 91.3227 15.088 91.4008 15.0295C91.5285 14.9326 91.6575 14.8373 91.7868 14.7427C91.9153 14.649 92.0469 14.5594 92.1814 14.4742C92.2454 14.4338 92.3786 14.3489 92.4682 14.3324C92.6278 14.3324 92.7416 14.4677 92.7983 14.6009C93.0059 15.0872 93.1631 15.6079 93.3459 16.1055C93.5708 16.7197 93.7941 17.3345 94.021 17.9479C94.2639 18.6045 94.5081 19.2608 94.7533 19.9163C94.9868 20.5421 95.2255 21.1665 95.4658 21.7902C95.6671 22.3143 95.8688 22.8385 96.0787 23.3595C96.2138 23.6932 96.3454 24.0646 96.5091 24.384C96.5473 24.4582 96.605 24.5209 96.6705 24.5723C96.7074 24.6013 96.7583 24.6313 96.8074 24.63L97.956 24.6016L97.9779 24.6073C98.0419 24.6232 98.0886 24.6635 98.1304 24.7126C98.238 24.8403 98.2276 24.8217 98.179 24.9625C98.0706 25.2741 97.9685 25.5864 97.8771 25.9032C97.7499 26.3427 97.6473 26.7927 97.5514 27.2393C97.4216 27.8405 97.3187 28.4493 97.2294 29.0572L97.2224 29.1027L97.1929 29.1387C97.1378 29.2058 97.0557 29.2403 96.973 29.263C96.8954 29.2842 96.8189 29.3033 96.7382 29.3067C96.5917 29.3116 96.5992 29.3699 96.4822 29.2181L96.4496 29.1755L96.4483 29.1212C96.4389 28.7143 96.4156 28.308 96.3786 27.9021C96.3441 27.5242 96.2924 27.1484 96.2299 26.7734C96.1845 26.5015 96.1294 26.2061 96.0354 25.9463C96.0129 25.8841 95.9808 25.8254 95.9335 25.7786C95.9079 25.7522 95.8609 25.7475 95.8262 25.7475H89.0981C89.0376 25.7475 88.9806 25.7692 88.9289 25.7992C88.8897 25.8222 88.8472 25.8559 88.8289 25.8985C88.7336 26.1239 88.6651 26.3887 88.6019 26.6256C88.5051 26.9891 88.4236 27.3579 88.3515 27.7271C88.2669 28.1578 88.1917 28.5898 88.1373 29.0254L88.1329 29.0619L88.113 29.093C88.0606 29.1771 87.9759 29.2207 87.8824 29.2448C87.8078 29.2643 87.7302 29.269 87.6531 29.269C87.5905 29.269 87.5173 29.2664 87.4591 29.2427L87.3593 29.2019L87.3557 29.0948C87.3382 28.5694 87.2969 28.0455 87.2348 27.5237C87.1786 27.0518 87.1118 26.5801 87.0206 26.1139C86.9485 25.7434 86.8684 25.372 86.7702 25.0074L86.7642 24.986V24.9641C86.7642 24.9173 86.7798 24.8758 86.8004 24.8348C86.8383 24.7588 86.8093 24.7948 86.8694 24.7348L86.9182 24.6864H86.9827C87.0347 24.6833 87.082 24.6794 87.1337 24.6773C87.2481 24.6716 87.3633 24.6663 87.4774 24.6585C87.596 24.6501 87.7148 24.6454 87.8333 24.64C87.8971 24.6371 87.9658 24.63 88.0287 24.63C88.0446 24.63 88.0726 24.6188 88.0864 24.6125C88.1081 24.6029 88.1211 24.5794 88.1306 24.559C88.3071 24.1712 88.4669 23.7734 88.6249 23.378C88.825 22.8782 89.0203 22.3757 89.2102 21.8706C89.4168 21.3206 89.6181 20.769 89.8192 20.2172C90.0151 19.6787 90.2102 19.1402 90.4006 18.6001C90.5646 18.1336 90.7275 17.6667 90.8876 17.1987C91.0028 16.862 91.0973 16.51 91.2227 16.1788C91.2386 16.1368 91.2402 16.043 91.2402 15.9986C91.2402 15.8673 91.1712 15.6952 91.1156 15.579C91.0678 15.4789 91.071 15.533 91.0812 15.41C91.0926 15.27 91.0835 15.3222 91.1715 15.2269H91.172ZM85.8167 23.172C85.8937 23.172 85.8765 23.1558 85.9491 23.2119C86.024 23.2493 86.0593 23.2542 86.0668 23.3838C86.0729 23.488 86.0726 23.587 86.0559 23.6906C86.0439 23.7677 86.0277 23.8559 86 23.9293L85.9877 23.9612L85.964 23.9855C85.5247 24.4368 85.0387 24.8502 84.5012 25.1803C84.034 25.4681 83.5338 25.705 83.0073 25.8624C82.5589 25.9969 82.0907 26.0863 81.6216 26.0844C80.9653 26.0821 80.3108 25.9747 79.7073 25.7105C79.1594 25.4704 78.6788 25.132 78.2876 24.6807C77.9356 24.2748 77.6504 23.8249 77.4355 23.3334C77.2257 22.8536 77.0722 22.3524 76.9782 21.8377C76.8881 21.3415 76.8387 20.8387 76.8397 20.3344C76.8416 19.2877 77.0134 18.2318 77.4812 17.2869C77.8961 16.4468 78.4968 15.7725 79.2787 15.2577C79.489 15.119 79.7159 15.0028 79.9463 14.9025C80.2027 14.7905 80.4657 14.6941 80.7331 14.6108C80.9899 14.5309 81.2502 14.4641 81.5138 14.41C81.7214 14.3674 81.9457 14.3311 82.1578 14.3322C82.6407 14.3345 83.1241 14.4157 83.5641 14.6184C83.9527 14.7978 84.2962 15.0449 84.5876 15.3577C84.8611 15.6523 85.0917 15.9824 85.2745 16.34C85.4445 16.6711 85.584 17.0172 85.69 17.3739C85.779 17.6748 85.8386 17.973 85.8947 18.2812C85.8989 18.2885 85.912 18.2963 85.918 18.3005C85.9543 18.3253 86.0721 18.341 86.1149 18.3457L86.2259 18.3572L86.2572 18.4637C86.2776 18.5322 86.269 18.5969 86.257 18.6656C86.2452 18.7299 86.2249 18.7941 86.1982 18.8539C86.1724 18.9116 86.1376 18.968 86.087 19.007L86.0637 19.0245L86.036 19.0333C85.7072 19.1381 85.3426 19.1989 85.0013 19.2498C84.5218 19.3211 84.0392 19.3747 83.5566 19.4191C83.0021 19.4705 82.4464 19.5123 81.8904 19.5457C81.3255 19.5805 80.7595 19.611 80.1936 19.6351C79.6877 19.6562 79.1808 19.6601 78.6919 19.6907C78.6728 19.7343 78.664 19.7821 78.664 19.8294C78.664 20.2187 78.7081 20.6066 78.7914 20.9871C78.8734 21.3616 78.9922 21.7267 79.1474 22.0777C79.285 22.3885 79.4555 22.6872 79.6692 22.9528C80.0479 23.4248 80.5075 23.8196 81.0687 24.0589C81.5939 24.2835 82.1499 24.3759 82.7203 24.378C83.0593 24.3785 83.3973 24.3522 83.73 24.2874C84.0687 24.2218 84.3925 24.0967 84.6984 23.9385C85.0635 23.7489 85.4011 23.4893 85.7046 23.2143L85.7524 23.1717H85.8167V23.172ZM65.0316 22.0257C65.135 21.8257 65.2363 21.6254 65.3358 21.4232C65.5798 20.9273 65.8195 20.4285 66.0627 19.9315C66.3857 19.2715 66.7085 18.611 67.0287 17.9495C67.3881 17.2062 67.7456 16.4627 68.1028 15.7184C68.4625 14.9702 68.8231 14.2225 69.1817 13.4737C69.5024 12.8044 69.8202 12.1334 70.1383 11.463C70.3823 10.9499 70.6194 10.4343 70.8607 9.9201C70.9785 9.66939 71.0887 9.41371 71.1835 9.15333C71.2741 8.90366 71.3277 8.63937 71.3525 8.37611L71.3666 8.22569H71.5181C72.05 8.22569 72.5823 8.22307 73.1143 8.21132C73.4687 8.20375 73.8231 8.19487 74.1772 8.18338C74.4271 8.17528 74.6768 8.16614 74.9262 8.15517C75.1503 8.14551 75.3754 8.14133 75.5995 8.14133H75.6598L75.7063 8.17946C75.7753 8.23692 75.8069 8.31735 75.8202 8.40328C75.8322 8.48006 75.8322 8.55449 75.8202 8.63101C75.8069 8.71797 75.7747 8.79841 75.7055 8.85561L75.6684 8.8859L75.6212 8.89217C75.3806 8.92351 75.1409 8.95563 74.9009 8.99011C74.7348 9.01387 74.5676 9.03947 74.4031 9.07237C74.271 9.09875 74.1412 9.13244 74.0119 9.16822C73.8461 9.21418 73.6225 9.2894 73.4995 9.41449C73.4083 9.50694 73.3339 9.61193 73.3028 9.73938C73.2739 9.86003 73.2608 9.97886 73.2608 10.1029C73.2608 10.486 73.2493 10.8689 73.2511 11.2528C73.2537 11.8694 73.265 12.4863 73.2749 13.1026C73.2869 13.8647 73.3013 14.627 73.3167 15.3893C73.3337 16.2044 73.3519 17.0195 73.3731 17.8346C73.3929 18.6157 73.4141 19.3961 73.4392 20.177C73.4598 20.8314 73.4799 21.4859 73.5045 22.1401C73.5206 22.5783 73.5475 23.0147 73.57 23.4519C73.5833 23.7045 73.6068 23.9805 73.6768 24.2244C73.7238 24.3892 73.8048 24.5368 73.9354 24.6501C74.0848 24.7794 74.2932 24.8546 74.4833 24.8988C74.6786 24.9439 74.8789 24.9766 75.0777 25.0038C75.3404 25.0393 75.6042 25.0672 75.8682 25.0918L75.9419 25.0988L75.986 25.1571C76.0484 25.2401 76.0615 25.3477 76.0615 25.4485C76.0615 25.5498 76.0458 25.6493 76.0059 25.7428L75.9622 25.8434H75.8531C75.676 25.8434 75.4976 25.8366 75.3203 25.8293C75.0584 25.8183 74.7964 25.8092 74.5342 25.8011C74.2294 25.7914 73.9244 25.7823 73.6194 25.7731C73.3133 25.7637 73.0067 25.759 72.7003 25.759C72.0453 25.759 71.3904 25.7697 70.7359 25.7917C70.3042 25.8063 69.8735 25.8241 69.4423 25.8434L69.3838 25.8455L69.3363 25.8113C69.194 25.706 69.1989 25.5383 69.2183 25.3647C69.2285 25.2754 69.2574 25.1884 69.3282 25.1296L69.363 25.1006L69.4073 25.0931C69.6672 25.0495 69.9286 25.0082 70.1869 24.9586C70.3546 24.9264 70.5215 24.8886 70.6868 24.8439C70.896 24.7878 71.1261 24.6901 71.2373 24.4927C71.3648 24.2665 71.3809 23.9113 71.3799 23.6577C71.3796 23.2913 71.3862 22.9254 71.3846 22.5588C71.382 21.9918 71.377 21.4245 71.3708 20.8573C71.3627 20.1639 71.3512 19.4703 71.3423 18.7764C71.3332 18.0313 71.3211 17.2867 71.3094 16.5411C71.2984 15.8177 71.289 15.0945 71.2767 14.3708C71.2658 13.7477 71.2525 13.1243 71.2394 12.5009C71.2329 12.205 71.2282 11.9088 71.2219 11.6127C71.1347 11.7934 71.0467 11.9731 70.9592 12.1536C70.7011 12.6848 70.451 13.2201 70.1945 13.7521C69.8667 14.4343 69.5398 15.1172 69.2149 15.7999C68.8487 16.568 68.4854 17.3371 68.1214 18.1057C67.75 18.8905 67.3852 19.6784 67.0198 20.4666C66.6777 21.2036 66.3429 21.944 66.012 22.6862C65.7349 23.307 65.4562 23.9275 65.1925 24.5538C65.0104 24.9868 64.8206 25.4287 64.666 25.8719L64.6409 25.945L64.568 25.9724C64.4939 26.0006 64.3998 26.0024 64.3215 26.0024C64.2392 26.0024 64.1507 25.9993 64.0708 25.9776L63.9817 25.9528L63.9556 25.8645C63.8221 25.4119 63.6461 24.9562 63.4764 24.5167C63.2131 23.834 62.9347 23.1566 62.6524 22.4817C62.3116 21.6651 61.9703 20.8497 61.6208 20.0367C61.2492 19.1704 60.8739 18.3057 60.4957 17.4421C60.1335 16.615 59.7676 15.7894 59.4025 14.9637C59.0933 14.2632 58.7817 13.5633 58.4694 12.8637C58.2534 12.38 58.0343 11.8976 57.8175 11.4139C57.8045 11.3857 57.7917 11.3562 57.7791 11.327C57.7575 11.6252 57.7308 11.9243 57.7128 12.2217C57.6768 12.8276 57.642 13.4335 57.6096 14.0397C57.5733 14.7289 57.536 15.4173 57.5018 16.1068C57.4673 16.8111 57.4367 17.516 57.4031 18.2209C57.3722 18.8766 57.3461 19.5327 57.3192 20.1885C57.296 20.7298 57.2764 21.2718 57.2626 21.8137C57.2534 22.1754 57.2461 22.5379 57.244 22.9001C57.2419 23.238 57.2508 23.5854 57.2942 23.921C57.3224 24.1409 57.3853 24.3741 57.5174 24.5556C57.6344 24.717 57.8322 24.7959 58.0191 24.8429C58.1442 24.8745 58.2701 24.9042 58.3965 24.9301C58.5391 24.9588 58.6835 24.9829 58.8277 25.0032C59.0319 25.0325 59.2362 25.0607 59.4399 25.0925L59.485 25.1014C59.624 25.1638 59.6279 25.2048 59.6224 25.3822C59.6224 25.4587 59.6172 25.5336 59.5992 25.6078C59.5814 25.682 59.5488 25.7622 59.4858 25.8097L59.4399 25.8436L59.3829 25.8429C59.0309 25.8358 58.6778 25.8178 58.3268 25.8003C57.7606 25.7721 57.1933 25.7603 56.6264 25.7585C56.1688 25.7569 55.7113 25.7669 55.2537 25.782C54.8917 25.794 54.5292 25.8021 54.1675 25.8188C53.957 25.8288 53.7411 25.8429 53.5311 25.8429H53.4707L53.4243 25.8042C53.3535 25.7452 53.3248 25.6632 53.3143 25.5744C53.3057 25.4984 53.313 25.4279 53.3248 25.3527C53.3352 25.2819 53.3553 25.2106 53.4005 25.1534L53.441 25.1022L54.6034 24.9241C54.8267 24.8899 55.0466 24.8118 55.219 24.6627C55.3973 24.5099 55.5052 24.2675 55.5723 24.0482C55.6953 23.6434 55.7611 23.1848 55.8152 22.7653C55.8625 22.3981 55.8959 22.027 55.9314 21.6577C55.9857 21.0949 56.032 20.5314 56.0771 19.9678C56.1322 19.2786 56.1905 18.5904 56.2409 17.9009C56.2952 17.1639 56.3495 16.4269 56.4005 15.6897C56.4501 14.9757 56.5039 14.2619 56.5501 13.5482C56.5908 12.9292 56.6308 12.3105 56.6679 11.6921C56.6945 11.245 56.7267 10.796 56.7428 10.3492C56.7481 10.2076 56.7314 10.0671 56.7037 9.92898C56.6744 9.78351 56.6107 9.65685 56.5193 9.53959C56.4091 9.39804 56.2304 9.30716 56.0646 9.24813C55.9241 9.19799 55.7792 9.15829 55.635 9.12199C55.4519 9.07655 55.2688 9.03555 55.0826 9.00264C54.8322 8.95903 54.5794 8.92299 54.3263 8.89165L54.278 8.88564L54.2409 8.85456C54.1015 8.73887 54.1487 8.80494 54.1344 8.61325C54.1286 8.53464 54.1367 8.45916 54.1513 8.38264C54.1808 8.23091 54.1106 8.2518 54.302 8.15804L54.3365 8.14081H54.3754C54.6099 8.14081 54.8505 8.15569 55.0853 8.16431C55.5441 8.18024 56.0035 8.19069 56.4624 8.20166C57.2022 8.21942 57.9424 8.22516 58.6825 8.22516H58.8261L58.847 8.36645C58.8718 8.53307 58.9032 8.70413 58.9538 8.86501C59.004 9.0251 59.068 9.18102 59.1348 9.33432C59.2171 9.52209 59.3093 9.70647 59.3957 9.8919C59.7911 10.7391 60.1562 11.6004 60.542 12.4521C60.9452 13.3431 61.3521 14.2334 61.7608 15.1222C62.1512 15.9699 62.5448 16.8161 62.9426 17.6604C63.2857 18.3888 63.6273 19.1177 63.9744 19.844C64.2285 20.3762 64.4847 20.9077 64.743 21.4376C64.8321 21.6204 64.9292 21.8346 65.0319 22.0257H65.0316ZM172.407 25.828C172.157 25.8875 171.581 25.8645 171.296 25.875C171.052 25.8836 170.808 25.8862 170.564 25.8891C170.362 25.8914 170.159 25.882 169.958 25.8494C169.739 25.8136 169.534 25.7327 169.341 25.6248C169.102 25.4906 168.893 25.3093 168.718 25.1001C168.439 24.769 168.198 24.4156 167.957 24.0573C167.723 23.7097 167.491 23.3603 167.269 23.0048C167.01 22.5914 166.745 22.1819 166.482 21.7719C166.262 21.4311 165.988 21.0842 165.647 20.8568C165.394 20.6881 165.114 20.5966 164.817 20.5674C164.818 20.815 164.819 21.0628 164.822 21.3107C164.827 21.6711 164.831 22.0309 164.836 22.3911C164.84 22.735 164.847 23.0793 164.855 23.4232C164.861 23.6807 164.859 23.9419 164.873 24.1991C164.882 24.3542 164.916 24.5444 165.013 24.6708C165.106 24.792 165.243 24.8489 165.39 24.8802C165.716 24.9505 166.051 25.0158 166.383 25.0455C166.534 25.063 166.507 25.0356 166.532 25.1834C166.547 25.2754 166.554 25.3503 166.548 25.4433C166.542 25.5498 166.51 25.6527 166.445 25.7387L166.395 25.8047H166.312C166.171 25.8047 166.027 25.7972 165.887 25.7906C165.66 25.7804 165.434 25.771 165.208 25.7627C164.974 25.7535 164.741 25.7444 164.508 25.7345C164.35 25.7274 164.19 25.7206 164.032 25.7206C163.776 25.7206 163.519 25.7253 163.264 25.7345C163.009 25.7434 162.754 25.753 162.499 25.7627C162.294 25.7705 162.088 25.7794 161.883 25.7906C161.765 25.7972 161.644 25.8047 161.527 25.8047H161.436L161.387 25.7285C161.325 25.6329 161.298 25.5271 161.295 25.414C161.292 25.3124 161.302 25.2038 161.365 25.1194L161.409 25.0599L161.483 25.0534C161.646 25.0387 161.808 25.0199 161.969 24.9938C162.139 24.9664 162.307 24.9264 162.475 24.8881C162.599 24.8604 162.724 24.8089 162.809 24.7118C162.897 24.6115 162.925 24.4326 162.937 24.3046C162.951 24.1586 162.96 24.0126 162.965 23.8659C162.973 23.5961 162.977 23.3263 162.979 23.056C162.981 22.7152 162.986 22.3736 162.989 22.032C162.99 21.6695 162.993 21.3065 162.993 20.9437C162.993 20.61 162.993 20.2762 162.993 19.9427C162.993 19.563 162.988 19.183 162.983 18.8035C162.979 18.4303 162.97 18.0566 162.96 17.6834C162.952 17.3721 162.943 17.0608 162.932 16.7495C162.925 16.5552 162.92 16.3588 162.909 16.1645C162.899 16.0039 162.863 15.7639 162.773 15.6275C162.691 15.5035 162.558 15.4439 162.417 15.4129C162.265 15.3799 162.111 15.345 161.957 15.3212C161.818 15.2995 161.676 15.2891 161.536 15.276L161.409 15.2635L161.388 15.1381C161.372 15.0441 161.369 15.0094 161.375 14.9143C161.381 14.8101 161.415 14.7077 161.478 14.6241L161.53 14.5549L161.617 14.5578C161.87 14.5662 162.124 14.5839 162.377 14.6004C162.861 14.6312 163.351 14.6398 163.836 14.6419C164.161 14.6435 164.487 14.6325 164.813 14.6187C165.093 14.6064 165.374 14.5975 165.655 14.5813C165.815 14.5722 165.983 14.5578 166.143 14.5578H166.23L166.279 14.6291C166.344 14.7226 166.372 14.8359 166.375 14.9488C166.377 15.0501 166.368 15.1185 166.304 15.2029L166.26 15.2611L166.186 15.2682C165.865 15.2982 165.168 15.3852 164.98 15.6294C164.886 15.7521 164.847 15.9461 164.846 16.0997L164.819 19.7941C165.032 19.7784 165.247 19.7549 165.455 19.7147C165.644 19.6784 165.838 19.6228 166.01 19.5337C166.173 19.4496 166.318 19.3412 166.446 19.2099C166.667 18.9835 166.853 18.7186 167.013 18.4468C167.203 18.1229 167.367 17.7863 167.509 17.4392C167.745 16.862 168.016 16.265 168.348 15.7351C168.551 15.4102 168.804 15.0485 169.099 14.7986C169.3 14.6275 169.535 14.4714 169.793 14.4042C169.99 14.3531 170.192 14.3303 170.396 14.3332C170.563 14.3356 170.719 14.3711 170.869 14.4434C171.012 14.5113 171.133 14.6098 171.229 14.7354L171.254 14.7667L171.261 14.8057C171.285 14.9373 171.266 15.1104 171.248 15.2423C171.22 15.4377 171.184 15.6317 171.142 15.8244C171.108 15.9856 171.08 16.1626 171.03 16.3183C170.971 16.5001 170.827 16.6105 170.639 16.5322C170.428 16.4447 170.217 16.3371 169.998 16.2713C169.844 16.2248 169.675 16.1877 169.512 16.1799C169.435 16.176 169.355 16.2157 169.292 16.2564C169.157 16.3436 169.007 16.5528 168.917 16.6834C168.698 17.0012 168.512 17.3909 168.348 17.7401C168.128 18.212 167.883 18.6876 167.595 19.1221C167.429 19.3742 167.24 19.6243 167.024 19.8422C167.191 19.932 167.347 20.0393 167.493 20.1626C167.668 20.3094 167.831 20.4747 167.966 20.6591C168.142 20.898 168.315 21.1393 168.488 21.3809C168.706 21.6857 168.922 21.9926 169.14 22.2976C169.368 22.6165 169.598 22.9338 169.829 23.2503C170.032 23.5274 170.233 23.8063 170.442 24.08C170.565 24.2419 170.697 24.4104 170.843 24.553C170.951 24.6593 171.077 24.747 171.215 24.811C171.485 24.9633 172.048 25.0662 172.385 25.0821C172.483 25.0907 172.505 25.1333 172.541 25.2338C172.576 25.3326 172.562 25.8021 172.407 25.8282V25.828ZM172.732 25.0931C173.005 25.0722 173.719 24.9082 173.886 24.7251C173.974 24.6285 174.007 24.4156 174.027 24.2908C174.07 24.0077 174.067 23.681 174.067 23.3945V19.4935C174.067 18.9268 174.069 18.3598 174.062 17.7931C174.056 17.2488 174.037 16.6228 174.011 16.0796C174.003 15.9172 173.968 15.7435 173.878 15.6056C173.795 15.4794 173.665 15.4228 173.522 15.3914C173.37 15.3591 173.216 15.3238 173.063 15.2998C172.923 15.2784 172.781 15.2679 172.641 15.2543L172.514 15.2423L172.493 15.117C172.477 15.0229 172.471 15.0091 172.476 14.914C172.483 14.8098 172.517 14.6941 172.58 14.61L172.632 14.5414L172.719 14.544C172.972 14.5518 173.226 14.5701 173.479 14.5863C173.963 14.6174 174.452 14.6396 174.937 14.6416C175.263 14.6432 175.589 14.6322 175.915 14.6184C176.195 14.6061 176.476 14.5936 176.757 14.5774C176.917 14.568 177.085 14.5539 177.245 14.5539H177.332L177.381 14.6249C177.447 14.7184 177.474 14.8357 177.477 14.9485C177.479 15.0498 177.476 15.1117 177.413 15.1958L177.368 15.2541L177.295 15.2614C176.918 15.2961 176.31 15.3476 176.09 15.6879C175.981 15.856 175.951 16.1308 175.947 16.3261C175.934 16.9634 175.95 17.6022 175.952 18.2394C175.954 18.9161 175.962 19.593 175.962 20.2697C175.962 20.8445 175.954 21.4185 175.949 21.9933C176.09 21.8562 176.227 21.7092 176.36 21.5718C176.668 21.2543 176.971 20.9322 177.274 20.61C177.638 20.2224 178.001 19.8328 178.361 19.4421C178.728 19.0443 179.095 18.6463 179.458 18.2459C179.776 17.8962 180.088 17.5416 180.399 17.1864C180.613 16.9425 180.824 16.6954 181.028 16.4431C181.053 16.4131 181.077 16.3768 181.091 16.34C181.103 16.3068 181.105 16.2478 181.104 16.2133C181.101 16.0409 181.079 15.803 180.984 15.6536C180.898 15.5176 180.749 15.4348 180.591 15.3914C180.35 15.3329 180.057 15.2705 179.795 15.2671C179.645 15.0778 179.659 14.7268 179.842 14.5852L179.891 14.5484L179.952 14.5515C180.417 14.6218 180.817 14.6231 181.283 14.632C181.49 14.6362 181.711 14.6416 181.918 14.6416C182.379 14.6416 182.838 14.6291 183.299 14.6087C183.643 14.5938 183.986 14.5761 184.329 14.5578L184.447 14.5515L184.492 14.6597C184.511 14.7075 184.52 14.7636 184.527 14.8143C184.535 14.8777 184.54 14.942 184.538 15.006C184.534 15.0822 184.517 15.1587 184.468 15.2196L184.427 15.27L184.363 15.2799C184.181 15.3071 183.999 15.3371 183.817 15.3682C183.672 15.3927 183.518 15.4215 183.379 15.469C183.285 15.5011 183.209 15.5552 183.156 15.6393C183.1 15.7265 183.057 15.8231 183.039 15.925C183.022 16.0221 183.016 16.1169 183.013 16.2151C183.003 16.5622 182.985 16.9083 182.98 17.2561C182.972 17.7492 182.971 18.2425 182.971 18.7359C182.971 19.2979 182.973 19.8602 182.98 20.4222C182.986 20.9719 182.989 21.5222 182.999 22.0722C183.007 22.5298 183.018 22.9873 183.032 23.4451C183.04 23.7246 183.039 24.0257 183.068 24.3031C183.079 24.4075 183.114 24.5073 183.175 24.5937C183.222 24.6603 183.284 24.7246 183.361 24.7564C183.585 24.8502 183.82 24.9126 184.06 24.9515C184.307 24.9915 184.555 25.0291 184.805 25.0531L184.851 25.0576L184.888 25.0842C185.04 25.1967 185.005 25.3691 184.971 25.5519C184.956 25.6337 184.93 25.7209 184.859 25.7723L184.815 25.8045H184.76C184.616 25.8045 184.468 25.794 184.324 25.7857C184.085 25.7721 183.846 25.765 183.607 25.7528C183.323 25.7384 183.038 25.7269 182.753 25.7204C182.476 25.7136 182.199 25.7133 181.922 25.7204C181.58 25.7293 181.24 25.7454 180.898 25.7619C180.703 25.7718 180.499 25.7804 180.305 25.8032L180.212 25.8147L180.154 25.7415C180.113 25.6901 180.09 25.6313 180.076 25.5679C180.062 25.5088 180.056 25.4496 180.053 25.3895C180.05 25.3294 180.052 25.1936 180.074 25.1377L180.104 25.0623L180.182 25.0393C180.398 24.9763 180.651 24.9513 180.85 24.846C180.947 24.7948 181.049 24.7204 181.095 24.6172C181.15 24.4921 181.16 24.3179 181.16 24.1834V17.7006C181.03 17.8498 180.902 18.001 180.771 18.1483C180.465 18.4904 180.157 18.8296 179.85 19.1691C179.489 19.5679 179.124 19.9644 178.761 20.3621C178.397 20.762 178.029 21.1581 177.662 21.5554C177.347 21.8967 177.032 22.236 176.714 22.5757C176.501 22.8042 176.288 23.0351 176.069 23.2576C176.035 23.2916 176.01 23.3302 175.999 23.3775C175.98 23.4538 175.975 23.5371 175.975 23.6157C175.979 23.8711 175.994 24.1312 176.03 24.3845C176.041 24.4639 176.071 24.6219 176.124 24.6851C176.175 24.7452 176.242 24.7825 176.315 24.8087C176.45 24.8565 176.61 24.8899 176.75 24.9197C177.021 24.9782 177.3 25.0184 177.575 25.0531L177.651 25.0623L177.693 25.1257C177.735 25.1876 177.732 25.2686 177.73 25.3404C177.728 25.4106 177.722 25.4822 177.709 25.5514C177.693 25.6332 177.667 25.7204 177.597 25.7718L177.553 25.8039H177.498C177.303 25.8039 177.103 25.7906 176.908 25.7802C176.602 25.7643 176.296 25.7559 175.99 25.7434C175.648 25.729 175.307 25.7199 174.965 25.7199C174.667 25.7199 174.369 25.7298 174.072 25.7431C173.666 25.7614 173.211 25.834 172.831 25.834C172.629 25.8272 172.623 25.1307 172.732 25.0923V25.0931ZM168.769 32.6571H168.852C169.44 32.6809 170.001 32.7307 170.608 32.7307C170.853 32.7307 171.268 32.7161 171.512 32.6796L171.668 32.6558L171.7 32.8104C171.734 32.9757 171.78 33.146 171.848 33.3009C171.916 33.4531 171.984 33.6051 172.054 33.7568C172.21 34.0969 172.383 34.4319 172.549 34.7675C172.771 35.2157 172.999 35.6615 173.224 36.1089C173.472 36.6022 173.722 37.0942 173.974 37.5852C174.217 38.0582 174.453 38.5345 174.696 39.0072C174.896 39.3945 175.099 39.7798 175.301 40.1657C175.395 40.3444 175.487 40.528 175.585 40.7064C175.737 40.4034 175.885 40.0981 176.032 39.7926C176.277 39.2796 176.517 38.7651 176.758 38.2504C177.027 37.6732 177.294 37.0955 177.559 36.5165C177.811 35.9652 178.06 35.4129 178.304 34.8584C178.499 34.4181 178.694 33.977 178.88 33.533C178.971 33.3147 179.084 33.0225 179.145 32.7945L179.181 32.6621L179.319 32.6722C179.487 32.685 179.656 32.6924 179.825 32.6952C179.989 32.6978 180.154 32.6999 180.319 32.6999C180.541 32.6999 180.764 32.7229 180.986 32.7109C181.226 32.6978 181.466 32.6884 181.707 32.6735C181.871 32.6634 181.959 32.6365 182.123 32.6365H182.203L182.253 32.6986C182.298 32.7553 182.318 32.8271 182.329 32.8979C182.341 32.9736 182.348 33.0441 182.34 33.1204C182.329 33.2084 182.3 33.2909 182.23 33.3497L182.195 33.3787L182.151 33.3865C181.946 33.4213 181.823 33.4704 181.619 33.5111C181.471 33.5406 181.326 33.5779 181.182 33.6203C181.109 33.6417 181.034 33.6683 180.966 33.7025C180.915 33.7281 180.877 33.7686 180.851 33.8185C180.806 33.9049 180.796 34.0405 180.795 34.1358C180.792 34.5343 180.783 34.9331 180.781 35.3324C180.778 35.873 180.774 36.4134 180.776 36.954C180.778 37.5617 180.781 38.1697 180.785 38.7772C180.79 39.3736 180.797 39.9701 180.809 40.5666C180.82 41.078 180.841 41.5891 180.851 42.1004C180.855 42.3054 180.908 42.4943 181.03 42.6609C181.303 43.0312 182.054 43.0636 182.497 43.1493L182.535 43.1963C182.586 43.2597 182.597 43.3485 182.597 43.4277C182.597 43.4976 182.59 43.5666 182.573 43.6348C182.555 43.7105 182.523 43.7797 182.472 43.8395L182.422 43.8902H182.346C182.129 43.8902 181.914 43.8742 181.695 43.8628C181.412 43.8484 181.124 43.8348 180.841 43.822C180.566 43.8092 180.29 43.8045 180.014 43.8131C179.509 43.828 179.005 43.8369 178.5 43.8549C178.232 43.8646 177.955 43.8661 177.687 43.8904C177.623 43.8957 177.612 43.891 177.564 43.856C177.492 43.7933 177.453 43.7087 177.438 43.6157C177.426 43.5366 177.426 43.4574 177.438 43.3783C177.449 43.308 177.469 43.2516 177.514 43.1947L177.555 43.1435L177.619 43.1339C177.864 43.0957 178.685 42.9636 178.834 42.763C178.91 42.6614 178.934 42.4943 178.943 42.3723C178.967 42.0498 178.975 41.7231 178.98 41.3997C178.988 40.9155 178.987 40.4314 178.989 39.9472C178.992 39.3815 178.996 38.8163 178.994 38.2507C178.992 37.6756 178.989 37.0997 178.989 36.5244C178.989 36.2259 178.99 35.9274 178.993 35.6288C178.886 35.8631 178.774 36.0955 178.669 36.3261C178.404 36.9062 178.142 37.4873 177.876 38.0665C177.574 38.7226 177.275 39.3794 176.975 40.0354C176.68 40.6797 176.392 41.3279 176.103 41.9748C175.858 42.524 175.612 43.1561 175.377 43.7097L175.362 43.7458L175.333 43.7708C175.268 43.8262 175.174 43.8588 175.093 43.8802C175.02 43.8998 174.934 43.9233 174.858 43.9233H174.745L174.703 43.8178C174.445 43.1602 174.163 42.4279 173.876 41.7831C173.539 41.0255 173.194 40.2718 172.841 39.5225C172.478 38.7529 172.111 37.9845 171.743 37.2172C171.461 36.6301 171.206 36.0148 170.904 35.4351C170.9 35.7576 170.912 36.0825 170.91 36.4029C170.908 36.9156 170.91 37.428 170.91 37.9409C170.91 38.464 170.91 38.9876 170.915 39.5108C170.919 39.984 170.923 40.4577 170.933 40.9307C170.941 41.2911 170.954 41.6512 170.971 42.0114C170.978 42.1589 171.001 42.3054 171.04 42.4478C171.072 42.5648 171.134 42.6622 171.221 42.7471C171.328 42.8515 171.495 42.9145 171.637 42.9539C171.729 42.979 171.821 43.0022 171.913 43.0215C172.011 43.0417 172.109 43.0594 172.208 43.0764C172.341 43.0991 172.475 43.1226 172.608 43.1469L172.686 43.1613L172.724 43.2305C172.775 43.3237 172.782 43.4337 172.771 43.5373C172.762 43.6301 172.741 43.7272 172.697 43.81L172.648 43.898L172.547 43.8964C172.233 43.891 171.919 43.8748 171.605 43.8541C171.171 43.8257 170.733 43.8144 170.297 43.8126C170.045 43.8113 169.794 43.8218 169.542 43.8353C169.311 43.8484 169.078 43.8536 168.845 43.8688C168.674 43.8802 168.496 43.8964 168.324 43.8964C168.2 43.8865 168.235 43.9079 168.172 43.7891C168.137 43.6964 168.119 43.6013 168.119 43.5018C168.119 43.4049 168.135 43.2999 168.185 43.2159L168.226 43.1493C168.534 43.1028 168.857 43.0618 169.154 42.9657C169.29 42.9207 169.462 42.8521 169.566 42.7481C169.65 42.6651 169.702 42.5643 169.728 42.4491C169.767 42.2796 169.785 42.0997 169.794 41.9257C169.811 41.6337 169.823 41.3405 169.836 41.0482C169.855 40.6283 169.87 40.2081 169.883 39.7878C169.898 39.294 169.917 38.7996 169.931 38.3055C169.944 37.796 169.953 37.2862 169.967 36.7767C169.981 36.3063 169.991 35.8357 170 35.3648C170.009 34.994 170.025 34.6195 170.019 34.2486C170.017 34.0836 169.978 33.919 169.887 33.7798C169.779 33.6148 169.353 33.467 169.161 33.4369C169.022 33.4155 168.883 33.3962 168.743 33.3829C168.64 33.1768 168.629 32.8438 168.769 32.6566V32.6571ZM78.7635 18.6847C78.9437 18.6902 79.1233 18.6959 79.3041 18.6959C79.6206 18.6959 79.9371 18.6928 80.2534 18.6863C80.6198 18.6792 80.9862 18.6724 81.3529 18.6583C81.7133 18.645 82.0739 18.6314 82.4338 18.6118C82.7344 18.5954 83.0348 18.5758 83.3346 18.5515C83.5059 18.5374 83.6916 18.5264 83.8441 18.4961C83.8582 18.4891 83.8765 18.4653 83.8872 18.4541C83.8969 18.4449 83.901 18.4371 83.9031 18.4269C83.8585 18.0824 83.7673 17.7427 83.6514 17.4157C83.525 17.0595 83.3476 16.726 83.128 16.4178C82.9138 16.1172 82.6493 15.8688 82.3333 15.6779C82.0047 15.4794 81.637 15.3954 81.2549 15.3933C80.8298 15.3912 80.4433 15.5142 80.0923 15.7526C79.694 16.0232 79.4091 16.422 79.1999 16.8485C78.9236 17.4136 78.7786 18.0255 78.7635 18.6847ZM91.7855 17.5356C91.7463 17.6521 91.7069 17.7685 91.6682 17.8847C91.5492 18.2425 91.4272 18.5993 91.3065 18.9566C91.1556 19.4034 91.0062 19.8508 90.8558 20.2981C90.6962 20.7758 90.5327 21.2522 90.3731 21.7293C90.2238 22.1762 90.0806 22.6246 89.932 23.0714C89.8148 23.4237 89.698 23.7768 89.5857 24.1309C89.5314 24.3004 89.4653 24.4833 89.4178 24.6588H94.4146C94.3091 24.3318 94.1858 24.0064 94.0701 23.6828C93.904 23.2166 93.7374 22.7504 93.5685 22.2848C93.3804 21.7674 93.1903 21.2503 93.001 20.7325C92.8187 20.2329 92.6285 19.7359 92.4428 19.2376C92.2911 18.8291 92.1399 18.4201 91.9798 18.0153C91.9166 17.856 91.8526 17.6946 91.7858 17.5356H91.7855Z" fill="#4F8A31"/>
</g>
</g>
</g>
<defs>
<clipPath id="clip0_84_547">
<rect width="198" height="50.86" fill="white" transform="translate(0 0.630005)"/>
</clipPath>
<clipPath id="clip1_84_547">
<rect width="198" height="50.86" fill="white" transform="translate(0 0.630005)"/>
</clipPath>
<clipPath id="clip2_84_547">
<rect width="197.976" height="50.86" fill="white" transform="translate(0.0117188 0.630005)"/>
</clipPath>
</defs>
</svg>
