<svg width="58" height="62" viewBox="0 0 58 62" fill="none" xmlns="http://www.w3.org/2000/svg">
<path fill-rule="evenodd" clip-rule="evenodd" d="M36 38H22C21.7348 38 21.4804 37.8946 21.2929 37.7071C21.1054 37.5196 21 37.2652 21 37C21 36.7348 21.1054 36.4804 21.2929 36.2929C21.4804 36.1054 21.7348 36 22 36H36C36.2652 36 36.5196 36.1054 36.7071 36.2929C36.8946 36.4804 37 36.7348 37 37C37 37.2652 36.8946 37.5196 36.7071 37.7071C36.5196 37.8946 36.2652 38 36 38ZM36 33H22C21.7348 33 21.4804 32.8946 21.2929 32.7071C21.1054 32.5196 21 32.2652 21 32C21 31.7348 21.1054 31.4804 21.2929 31.2929C21.4804 31.1054 21.7348 31 22 31H36C36.2652 31 36.5196 31.1054 36.7071 31.2929C36.8946 31.4804 37 31.7348 37 32C37 32.2652 36.8946 32.5196 36.7071 32.7071C36.5196 32.8946 36.2652 33 36 33ZM36 28H22C21.7348 28 21.4804 27.8946 21.2929 27.7071C21.1054 27.5196 21 27.2652 21 27C21 26.7348 21.1054 26.4804 21.2929 26.2929C21.4804 26.1054 21.7348 26 22 26H36C36.2652 26 36.5196 26.1054 36.7071 26.2929C36.8946 26.4804 37 26.7348 37 27C37 27.2652 36.8946 27.5196 36.7071 27.7071C36.5196 27.8946 36.2652 28 36 28Z" fill="#333333"/>
</svg>
