<svg width="36" height="63" viewBox="0 0 36 63" fill="none" xmlns="http://www.w3.org/2000/svg">
<path fill-rule="evenodd" clip-rule="evenodd" d="M20.9307 32.4332C21.7532 32.9707 22.6044 33.4629 23.4807 33.9073C23.5754 33.9479 23.6611 34.0074 23.7321 34.0822C23.8031 34.1569 23.858 34.2454 23.8937 34.3421C23.9294 34.4388 23.9452 34.5417 23.9398 34.6447C23.9344 34.7476 23.9081 34.8484 23.8626 34.9409L23.7126 35.4618C23.679 35.6544 23.5978 35.8355 23.4764 35.9887C23.3549 36.1418 23.197 36.2621 23.0171 36.3386C22.4549 36.6725 21.8352 36.8982 21.1899 37.0041C19.4308 37.0423 17.8626 35.53 16.7717 34.2673C15.3717 32.6557 14.3056 30.7822 13.6353 28.7555C13.0898 27.1682 12.5853 25.0491 13.4853 23.5232C13.9019 23.0088 14.4105 22.5764 14.9853 22.2482C15.1385 22.1312 15.3187 22.0544 15.5093 22.0249C15.6998 21.9953 15.8948 22.014 16.0763 22.0791L16.5944 22.2155C16.6964 22.2269 16.7951 22.2589 16.8844 22.3094C16.9738 22.36 17.0519 22.428 17.1143 22.5095C17.1767 22.591 17.222 22.6843 17.2475 22.7837C17.2729 22.8832 17.2781 22.9867 17.2626 23.0882C17.2626 24.2459 17.2354 25.0777 17.2763 26.0309C17.2899 26.4264 17.1399 26.4809 16.7854 26.6214C16.5672 26.7114 16.4035 26.7768 16.2262 26.845C16.1322 26.8605 16.0423 26.8952 15.9624 26.9471C15.8824 26.9989 15.8141 27.0667 15.7616 27.1462C15.7091 27.2258 15.6737 27.3153 15.6574 27.4091C15.6412 27.503 15.6444 27.5993 15.6671 27.6918C15.882 28.7117 16.2499 29.6932 16.7581 30.6032C17.2848 31.4999 17.9419 32.3134 18.708 33.0168C18.7762 33.0833 18.8575 33.1348 18.9468 33.168C19.0361 33.2011 19.1314 33.2152 19.2265 33.2093C19.3216 33.2034 19.4143 33.1776 19.4988 33.1337C19.5833 33.0897 19.6578 33.0285 19.7172 32.9541C19.8536 32.8354 20.0035 32.7236 20.1808 32.5709C20.4808 32.3323 20.6034 32.2395 20.9307 32.4332Z" fill="#FF0000"/>
</svg>
