<svg width="9" height="12" viewBox="0 0 9 12" fill="none" xmlns="http://www.w3.org/2000/svg">
<path fill-rule="evenodd" clip-rule="evenodd" d="M6.45049 8.56101C7.05361 8.95522 7.67788 9.3161 8.32049 9.64201C8.38996 9.67182 8.45275 9.71546 8.50481 9.77028C8.55688 9.8251 8.59715 9.88994 8.62334 9.96085C8.64954 10.0318 8.66108 10.1073 8.65716 10.1828C8.65323 10.2583 8.63392 10.3322 8.60052 10.4L8.49053 10.782C8.46592 10.9232 8.40639 11.056 8.31731 11.1684C8.22823 11.2807 8.11243 11.3689 7.98052 11.425C7.5682 11.6698 7.11375 11.8353 6.64055 11.913C5.35055 11.941 4.20056 10.832 3.40056 9.90601C2.37388 8.72422 1.59205 7.35031 1.10052 5.86401C0.700516 4.70001 0.33053 3.146 0.99053 2.027C1.29601 1.64979 1.66901 1.33273 2.09051 1.092C2.2029 1.0062 2.33505 0.949898 2.47478 0.928239C2.61452 0.906579 2.75746 0.920249 2.89055 0.968003L3.27056 1.06801C3.34536 1.07643 3.41769 1.09987 3.48321 1.13693C3.54872 1.17399 3.60603 1.2239 3.65179 1.28367C3.69754 1.34344 3.73076 1.41183 3.74944 1.48474C3.76812 1.55766 3.77193 1.6336 3.76055 1.708C3.76055 2.557 3.74056 3.16701 3.77056 3.86601C3.78056 4.15601 3.67057 4.196 3.41057 4.299C3.25057 4.365 3.13054 4.41301 3.00054 4.46301C2.93159 4.47436 2.86569 4.49985 2.80706 4.53787C2.74843 4.57588 2.69834 4.6256 2.65984 4.68391C2.62134 4.74223 2.59535 4.80787 2.58343 4.87672C2.5715 4.94557 2.57387 5.01614 2.59051 5.08401C2.74811 5.83191 3.01787 6.5517 3.39055 7.219C3.77685 7.87663 4.25872 8.47315 4.82049 8.98901C4.87048 9.03779 4.93017 9.07556 4.99566 9.09987C5.06114 9.12418 5.13102 9.13451 5.20074 9.13017C5.27045 9.12584 5.33847 9.10695 5.40044 9.07471C5.46241 9.04247 5.51703 8.9976 5.5606 8.943C5.6606 8.856 5.77056 8.774 5.90056 8.662C6.12056 8.487 6.21049 8.41901 6.45049 8.56101Z" fill="#222222"/>
</svg>
