<svg width="12" height="16" viewBox="0 0 12 16" fill="none" xmlns="http://www.w3.org/2000/svg">
<g clip-path="url(#clip0_84_46)">
<g clip-path="url(#clip1_84_46)">
<path fill-rule="evenodd" clip-rule="evenodd" d="M10.735 10.2998L10.7661 10.3398L10.3301 10.79C10.2771 10.84 10.2251 10.8997 10.1691 10.9497L6.54504 14.6899H5.45404L1.95404 11.0498C1.79743 10.9057 1.64987 10.7521 1.51208 10.5898L1.31207 10.3901L1.32507 10.3701C0.472823 9.32472 0.00445692 8.01868 -0.00195312 6.66992C-0.00195312 5.07862 0.630214 3.55246 1.75543 2.42725C2.88065 1.30203 4.40675 0.669922 5.99805 0.669922C7.58935 0.669922 9.1155 1.30203 10.2407 2.42725C11.3659 3.55246 11.998 5.07862 11.998 6.66992C11.9929 7.98679 11.5485 9.26417 10.735 10.2998ZM6.00006 2.68994C4.9392 2.68994 3.92178 3.11118 3.17163 3.86133C2.42149 4.61147 2.00006 5.62908 2.00006 6.68994C2.00121 7.54102 2.27766 8.36877 2.78809 9.0498L2.78107 9.1001L6.00006 12.6899L9.25006 9.06006L9.24109 9.02002C9.67316 8.42391 9.93178 7.71988 9.9884 6.98584C10.045 6.25179 9.89742 5.51616 9.56189 4.86084C9.22636 4.20552 8.71599 3.65613 8.08734 3.27295C7.45869 2.88977 6.73628 2.68788 6.00006 2.68994ZM6.00006 8.23975C5.69363 8.23915 5.39427 8.14773 5.13977 7.97705C4.88527 7.80637 4.68705 7.56453 4.57019 7.28125C4.45333 6.99797 4.42307 6.68621 4.48322 6.38574C4.54336 6.08527 4.69119 5.80924 4.90808 5.59277C5.12497 5.3763 5.40119 5.229 5.70178 5.16943C6.00237 5.10987 6.31387 5.1409 6.59692 5.2583C6.87997 5.3757 7.12187 5.57427 7.29205 5.8291C7.46224 6.08393 7.55304 6.38351 7.55304 6.68994C7.55317 6.89378 7.51309 7.09587 7.43506 7.28418C7.35702 7.47249 7.2426 7.64311 7.09833 7.78711C6.95405 7.93111 6.78276 8.04538 6.5943 8.12305C6.40584 8.20072 6.2039 8.24027 6.00006 8.23975Z" fill="#333333"/>
</g>
</g>
<defs>
<clipPath id="clip0_84_46">
<rect width="12" height="15" fill="white" transform="translate(0 0.689941)"/>
</clipPath>
<clipPath id="clip1_84_46">
<rect width="12" height="14" fill="white" transform="translate(0 0.689941)"/>
</clipPath>
</defs>
</svg>
