<svg width="39" height="63" viewBox="0 0 39 63" fill="none" xmlns="http://www.w3.org/2000/svg">
<path fill-rule="evenodd" clip-rule="evenodd" d="M28.6998 39.8032C28.5113 39.9909 28.2562 40.0963 27.9903 40.0963C27.7243 40.0963 27.4691 39.9909 27.2807 39.8032L23.8631 36.3823C22.257 37.638 20.2327 38.2343 18.2024 38.0498C16.1721 37.8653 14.2885 36.9139 12.935 35.3893C11.5815 33.8647 10.86 31.8815 10.9172 29.8435C10.9745 27.8056 11.8062 25.866 13.2432 24.4198C14.6801 22.9736 16.6141 22.1294 18.6516 22.0592C20.689 21.989 22.6766 22.698 24.2097 24.0419C25.7427 25.3857 26.706 27.2634 26.9034 29.2926C27.1008 31.3218 26.5174 33.35 25.272 34.9642L28.6998 38.3901C28.8871 38.5775 28.9923 38.8316 28.9923 39.0966C28.9923 39.3616 28.8871 39.6158 28.6998 39.8032ZM18.9464 24.0888C17.7605 24.0888 16.6013 24.4405 15.6153 25.0994C14.6293 25.7582 13.8607 26.6947 13.4069 27.7904C12.953 28.8861 12.8343 30.0918 13.0657 31.255C13.297 32.4181 13.8681 33.4866 14.7066 34.3252C15.5452 35.1638 16.6136 35.7349 17.7767 35.9662C18.9398 36.1976 20.1454 36.0789 21.241 35.625C22.3366 35.1712 23.2729 34.4026 23.9318 33.4165C24.5906 32.4304 24.9423 31.2711 24.9423 30.0851C24.9423 28.4948 24.3106 26.9696 23.1862 25.8451C22.0617 24.7205 20.5366 24.0888 18.9464 24.0888Z" fill="#222222"/>
</svg>
