<svg width="50" height="43" viewBox="0 0 50 43" fill="none" xmlns="http://www.w3.org/2000/svg">
<g opacity="0.5">
<g clip-path="url(#clip0_84_532)">
<g clip-path="url(#clip1_84_532)">
<path fill-rule="evenodd" clip-rule="evenodd" d="M33.7605 29.724C33.5719 29.9118 33.3167 30.0173 33.0505 30.0173C32.7844 30.0173 32.529 29.9118 32.3404 29.724L28.9205 26.301C27.3131 27.5576 25.2872 28.1544 23.2552 27.9698C21.2233 27.7852 19.3381 26.8331 17.9835 25.3074C16.6289 23.7817 15.9068 21.797 15.9641 19.7576C16.0214 17.7181 16.8538 15.7771 18.2919 14.3298C19.73 12.8825 21.6656 12.0377 23.7047 11.9675C25.7438 11.8972 27.733 12.6068 29.2673 13.9516C30.8016 15.2965 31.7657 17.1756 31.9632 19.2063C32.1608 21.237 31.5768 23.2667 30.3304 24.882L33.7605 28.31C33.948 28.4975 34.0532 28.7518 34.0532 29.017C34.0532 29.2822 33.948 29.5365 33.7605 29.724ZM24.0005 14C22.8138 14 21.6538 14.3519 20.6671 15.0112C19.6804 15.6705 18.9113 16.6076 18.4571 17.7039C18.003 18.8003 17.8842 20.0067 18.1157 21.1705C18.3472 22.3344 18.9187 23.4035 19.7578 24.2426C20.5969 25.0818 21.6661 25.6532 22.8299 25.8847C23.9938 26.1162 25.2003 25.9974 26.2966 25.5433C27.393 25.0892 28.33 24.3201 28.9892 23.3334C29.6485 22.3467 30.0005 21.1867 30.0005 20C30.0005 18.4087 29.3684 16.8826 28.2432 15.7574C27.1179 14.6322 25.5918 14 24.0005 14Z" fill="#333333"/>
</g>
</g>
</g>
<defs>
<clipPath id="clip0_84_532">
<rect width="18" height="18" fill="white" transform="translate(16 12)"/>
</clipPath>
<clipPath id="clip1_84_532">
<rect width="18.06" height="18.031" fill="white" transform="translate(16 12)"/>
</clipPath>
</defs>
</svg>
