<svg width="170" height="170" viewBox="0 0 170 170" fill="none" xmlns="http://www.w3.org/2000/svg">
<g clip-path="url(#clip0_84_162)">
<path d="M85 170C38.1388 170 0 131.881 0 85C0 38.1191 38.1388 0 85 0C131.861 0 170 38.1388 170 85C170 131.861 131.861 170 85 170ZM85 7.87584C42.4705 7.87584 7.87584 42.4705 7.87584 85C7.87584 127.53 42.4705 162.124 85 162.124C127.53 162.124 162.124 127.53 162.124 85C162.124 42.4705 127.53 7.87584 85 7.87584Z" fill="#398938"/>
<path d="M109.121 99.9642H128.495C112.291 119.536 85.9854 135.701 85.9854 135.701C85.9854 135.701 85.5128 135.976 85.0206 136.292C84.548 135.976 84.0558 135.701 84.0558 135.701C84.0558 135.701 57.1992 119.181 41.0537 99.3735H63.8149L71.6317 111.345C72.5965 112.782 74.1716 113.648 75.9043 113.688H75.9634C77.6567 113.688 79.2712 112.861 80.236 111.443L99.6106 83.228L104.257 96.4988C105.006 98.5662 106.935 99.9445 109.14 99.9445L109.121 99.9642Z" fill="#398938"/>
<path d="M140.86 73.0483C140.86 78.4827 138.891 84.0942 135.76 89.627H112.743L105.97 70.1934C105.32 68.3622 103.705 67.0627 101.776 66.7871C99.8068 66.5508 97.9165 67.3777 96.8139 68.9923L76.0414 99.2552L70.8827 91.3794C69.9573 89.942 68.3428 89.0363 66.5904 89.0363H33.9057C30.9522 83.7004 29.1211 78.3055 29.1211 73.0483C29.1211 44.1637 55.1507 42.6673 55.1507 42.6673C55.1507 42.6673 74.2497 39.3988 84.9805 56.765C95.7113 39.3988 114.83 42.6673 114.83 42.6673C114.83 42.6673 140.84 44.144 140.84 73.0483H140.86Z" fill="#398938"/>
</g>
<defs>
<clipPath id="clip0_84_162">
<rect width="170" height="170" fill="white"/>
</clipPath>
</defs>
</svg>
