<svg width="170" height="170" viewBox="0 0 170 170" fill="none" xmlns="http://www.w3.org/2000/svg">
<g clip-path="url(#clip0_84_181)">
<path d="M85 0C38.1388 0 0 38.1388 0 85C0 131.861 38.1388 170 85 170C131.861 170 170 131.861 170 85C170 38.1388 131.881 0 85 0ZM85 162.124C42.4705 162.124 7.87584 127.53 7.87584 85C7.87584 42.4705 42.4705 7.87584 85 7.87584C127.53 7.87584 162.124 42.4705 162.124 85C162.124 127.53 127.53 162.124 85 162.124Z" fill="#398938"/>
<path d="M138.004 70.8036C139.225 67.9289 144.719 53.8705 139.56 45.6009C138.024 43.1594 134.893 40.1862 128.652 39.9303C128.475 39.9303 128.317 39.9303 128.16 39.9303C119.24 40.8557 115.361 42.1552 112.802 43.0215C110.478 43.7894 109.691 44.0454 106.344 43.5532C106.284 43.5532 106.225 43.5532 106.147 43.5532C100.968 39.9303 94.3526 38.552 84.9213 38.9852C75.5097 38.552 68.8939 39.9303 63.6959 43.5532C63.6368 43.5532 63.5778 43.5532 63.499 43.5532C60.1518 44.0454 59.3642 43.7894 57.0408 43.0215C54.4615 42.1552 50.5826 40.8754 41.6829 39.9303C41.5254 39.9303 41.3482 39.9106 41.1907 39.9303C34.9491 40.1862 31.8184 43.1594 30.2826 45.6009C25.8919 52.6301 29.2391 63.8925 31.0702 68.8543C29.5147 69.6813 28.294 70.902 27.5261 72.4181C26.2856 74.8596 26.3841 77.8131 27.7624 80.5499C28.9831 82.952 31.1096 84.9998 33.7677 86.3583C35.8745 87.4216 38.06 87.9335 40.1274 87.9335C43.8488 87.9335 47.1172 86.2599 48.6924 83.1686C49.9329 80.7271 49.8344 77.7737 48.4561 75.0368C47.2354 72.6347 45.1089 70.587 42.4508 69.2284C41.0725 68.5196 39.6155 68.0667 38.1585 67.8304C36.5439 63.9122 33.3542 53.8311 36.1895 49.2828C36.7802 48.3377 37.9419 47.0776 41.2301 46.9004C49.1847 47.747 52.4531 48.8497 54.8553 49.6372C55.7019 49.9129 56.4698 50.1689 57.2377 50.3461C54.3039 55.4654 55.0915 61.3919 55.6822 65.8615L55.8594 67.2201C56.8833 75.4503 59.7974 82.5189 64.5229 88.2486C66.4524 90.5719 68.2442 92.1471 69.7012 93.4072C71.8671 95.2974 73.0681 96.341 73.8557 98.8219C74.0723 99.6291 74.1708 103.35 74.2495 107.288C74.2889 109.179 74.3086 110.773 74.348 112.152C74.4464 118.374 74.4858 120.697 75.9822 123.808C77.1833 126.309 79.0538 128.494 81.4362 130.384V143.931C81.4362 145.86 82.9917 147.416 84.9213 147.416C86.8509 147.416 88.4063 145.86 88.4063 143.931V130.384C90.8085 128.494 92.6593 126.289 93.8604 123.808C95.3568 120.697 95.3961 118.374 95.4946 112.152C95.5143 110.773 95.534 109.159 95.593 107.288C95.6915 103.35 95.7702 99.6291 95.9868 98.8416C96.7744 96.3607 97.9558 95.3171 100.141 93.4269C101.598 92.1668 103.39 90.5916 105.32 88.2682C110.045 82.5386 112.959 75.47 113.983 67.2397L114.16 65.8812C114.751 61.4116 115.539 55.4851 112.605 50.3658C113.373 50.1689 114.141 49.9326 114.987 49.6569C117.389 48.8497 120.658 47.7667 128.612 46.9201C131.901 47.117 133.062 48.3574 133.653 49.3025C136.193 53.3783 133.909 62.5142 131.723 67.7714C129.243 67.5154 126.604 68.0076 124.182 69.2481C121.524 70.587 119.398 72.6544 118.177 75.0565C116.799 77.7737 116.7 80.7468 117.941 83.1883C119.516 86.2796 122.784 87.9532 126.506 87.9532C128.553 87.9532 130.759 87.4413 132.865 86.378C135.524 85.0391 137.65 82.9717 138.871 80.5696C140.249 77.8524 140.348 74.8793 139.107 72.4575C138.812 71.8668 138.438 71.3352 138.024 70.8429L138.004 70.8036ZM42.2342 78.1872C42.4114 78.5219 42.7658 79.3882 42.4705 79.9986C41.9783 80.9634 39.5761 81.4753 36.918 80.1167C35.5988 79.4473 34.5159 78.4431 33.9646 77.3602C33.7874 77.0255 33.433 76.1591 33.7283 75.5488C34.0433 74.9384 34.9491 74.7218 35.3232 74.6627C35.5791 74.6233 35.8351 74.6037 36.1108 74.6037C37.1149 74.6037 38.2372 74.8793 39.3005 75.4109C40.6197 76.0804 41.7026 77.0845 42.2539 78.1675L42.2342 78.1872ZM107.249 64.9361L107.072 66.3734C106.225 73.2648 103.823 79.1323 99.9444 83.8184C98.389 85.7086 96.9516 86.9687 95.5537 88.1698C93.0531 90.3356 90.71 92.4031 89.3317 96.7545C88.8395 98.2902 88.7804 100.476 88.6229 107.131C88.5835 109.041 88.5442 110.655 88.5245 112.053C88.426 117.842 88.3867 119.122 87.5794 120.776C86.969 122.036 86.0633 123.198 84.9016 124.261C83.7399 123.198 82.8342 122.036 82.2238 120.776C81.4165 119.122 81.3772 117.842 81.2787 112.053C81.259 110.655 81.2393 109.041 81.1803 107.131C81.0227 100.476 80.944 98.2902 80.4714 96.7545C79.0932 92.4031 76.7501 90.3356 74.2495 88.1698C72.8712 86.9687 71.4339 85.7086 69.8587 83.8184C65.9996 79.1323 63.5974 73.2648 62.7311 66.3734L62.5539 64.9361C61.9632 60.5256 61.3528 55.9773 63.9322 52.7876C67.3778 48.5346 71.6505 45.8568 81.6528 45.8568C82.6176 45.8568 83.6415 45.8765 84.7244 45.9356C84.8425 45.9356 84.941 45.9356 85.0591 45.9356C97.2864 45.3646 102.091 48.1211 105.851 52.7876C108.431 55.9576 107.82 60.5256 107.23 64.9361H107.249ZM132.649 77.3602C132.098 78.4431 131.015 79.4473 129.695 80.1167C127.037 81.4753 124.616 80.9437 124.143 79.9986C123.828 79.3882 124.202 78.5416 124.379 78.1872C124.931 77.1042 126.013 76.1001 127.333 75.4306C128.652 74.7612 130.109 74.4855 131.29 74.6824C131.664 74.7415 132.57 74.9581 132.885 75.5685C133.2 76.1788 132.826 77.0255 132.649 77.3799V77.3602Z" fill="#398938"/>
</g>
<defs>
<clipPath id="clip0_84_181">
<rect width="170" height="170" fill="white"/>
</clipPath>
</defs>
</svg>
