<svg width="99" height="99" viewBox="0 0 99 99" fill="none" xmlns="http://www.w3.org/2000/svg">
<g clip-path="url(#clip0_84_339)">
<path d="M49.5 99C22.2102 99 0 76.8013 0 49.5C0 22.1987 22.2102 0 49.5 0C76.7898 0 99 22.2102 99 49.5C99 76.7898 76.7898 99 49.5 99ZM49.5 4.58652C24.7328 4.58652 4.58652 24.7328 4.58652 49.5C4.58652 74.2672 24.7328 94.4135 49.5 94.4135C74.2672 94.4135 94.4135 74.2672 94.4135 49.5C94.4135 24.7328 74.2672 4.58652 49.5 4.58652Z" fill="#398938"/>
<path d="M49.4999 26.3954C51.6556 26.3954 53.6049 25.7763 55.6344 25.1915C58.5812 24.3315 61.723 24.148 64.7616 24.6182C67.5823 25.0539 70.2998 26.0858 72.3064 28.1956C74.4391 30.443 75.8266 33.4013 76.1476 36.4858C76.4228 39.1574 75.9298 41.8176 75.3335 44.409C74.7373 47.0004 74.1639 49.3854 73.5104 51.8506C71.4464 59.533 67.8804 74.6341 61.1497 74.6341C55.6344 74.6341 52.7105 67.1696 51.8505 65.0254C50.9906 62.8812 49.5114 63.0532 49.5114 63.0532C49.5114 63.0532 48.0323 62.8812 47.1723 65.0254C46.3123 67.1696 43.3884 74.6341 37.8731 74.6341C31.1309 74.6341 27.5649 59.5445 25.5124 51.8506C24.8474 49.3854 24.2626 46.8972 23.6893 44.409C23.116 41.9208 22.5885 39.1574 22.8752 36.4858C23.1963 33.4013 24.5837 30.443 26.7164 28.1956C28.7115 26.0858 31.4405 25.0539 34.2612 24.6182C37.2998 24.148 40.4416 24.3315 43.3884 25.1915C45.4179 25.7763 47.3672 26.4069 49.5229 26.3954H49.4999Z" fill="#398938"/>
</g>
<defs>
<clipPath id="clip0_84_339">
<rect width="99" height="99" fill="white"/>
</clipPath>
</defs>
</svg>
