<svg width="170" height="170" viewBox="0 0 170 170" fill="none" xmlns="http://www.w3.org/2000/svg">
<g clip-path="url(#clip0_84_198)">
<path d="M85 0C38.1388 0 0 38.1388 0 85C0 131.861 38.1388 170 85 170C131.861 170 170 131.861 170 85C170 38.1388 131.881 0 85 0ZM85 162.124C42.4705 162.124 7.87584 127.53 7.87584 85C7.87584 42.4705 42.4705 7.87584 85 7.87584C127.53 7.87584 162.124 42.4705 162.124 85C162.124 127.53 127.53 162.124 85 162.124Z" fill="#398938"/>
<path d="M62.5347 92.9942C60.4673 93.6833 59.3449 95.9082 60.0341 97.9757C61.9046 103.627 61.5108 108.352 58.8724 112.014C55.8993 116.129 50.6421 118.02 46.9996 118.02C38.0014 118.02 22.7814 110.872 22.7814 84.0748C22.7814 69.7014 26.4042 58.8918 33.2759 52.8077C37.7848 48.8107 43.6326 47.1371 50.1105 47.9247C54.6194 48.476 57.7107 50.0906 59.2859 52.6896C61.9046 57.0607 60.231 63.893 59.3646 66.1573C58.577 68.1853 59.5812 70.4496 61.6092 71.2372C63.6373 72.0248 65.9213 71.0206 66.7089 68.9926C66.8861 68.52 71.1784 57.2379 66.0591 48.6532C63.1844 43.8293 58.1439 40.9546 51.0753 40.0882C42.2544 39.0053 34.2998 41.3484 28.0582 46.8811C19.4538 54.4813 14.9055 67.3386 14.9055 84.0354C14.9055 117.035 35.0874 125.856 46.9996 125.856C52.3354 125.856 60.3097 123.434 65.2518 116.582C68.1462 112.585 70.883 105.655 67.4964 95.4554C66.8073 93.388 64.6021 92.2657 62.515 92.9548L62.5347 92.9942Z" fill="#398938"/>
<path d="M141.942 46.9202C135.68 41.3874 127.726 39.0444 118.924 40.1273C111.856 40.9936 106.835 43.888 103.941 48.6923C98.8017 57.2769 103.094 68.5591 103.291 69.0316C104.078 71.0597 106.362 72.0638 108.39 71.2762C110.419 70.4887 111.423 68.2047 110.635 66.1766C110.596 66.0979 107.583 57.9661 110.714 52.7286C112.289 50.1099 115.361 48.4954 119.889 47.9441C126.387 47.1368 132.215 48.8301 136.724 52.8271C143.595 58.8915 147.218 69.7011 147.218 84.0942C147.218 110.892 131.998 118.039 123 118.039C119.377 118.039 114.1 116.169 111.127 112.034C108.489 108.371 108.095 103.646 109.966 97.995C110.655 95.9276 109.532 93.7027 107.465 93.0136C105.398 92.3244 103.173 93.4467 102.484 95.5141C99.097 105.713 101.834 112.624 104.728 116.641C109.67 123.473 117.645 125.915 122.98 125.915C134.893 125.915 155.075 117.114 155.075 84.0942C155.075 67.3974 150.526 54.5401 141.922 46.9399L141.942 46.9202Z" fill="#398938"/>
<path d="M66.4913 77.1044C60.6041 76.6712 56.5874 77.065 53.8702 77.7148C53.0236 74.8795 52.3148 71.1384 53.0039 68.2047C53.5158 66.0979 52.1966 63.9714 50.0898 63.4595C47.983 62.9476 45.8566 64.2668 45.3446 66.3736C44.5571 69.7011 44.813 73.2452 45.4037 76.2971C43.8482 75.5686 42.6669 74.9188 42.2731 74.5054C40.9539 72.7727 38.4927 72.438 36.76 73.7572C35.0273 75.0764 34.6926 77.5376 36.0118 79.2702C37.3507 81.0226 40.2844 82.6765 43.2772 83.9761C40.7373 86.0828 38.217 88.6425 37.2325 91.1431C36.4253 93.1711 37.4294 95.4551 39.4575 96.2427C41.4855 97.05 43.7695 96.0458 44.5571 94.0178C44.8327 93.3286 45.7581 92.2851 47.0183 91.1628C46.9789 94.1162 47.1561 97.1878 47.8452 99.4127C48.3768 101.106 49.9323 102.189 51.6059 102.189C51.9997 102.189 52.3935 102.13 52.7676 102.012C54.835 101.362 56.0164 99.1567 55.3666 97.0893C54.6775 94.8644 54.8744 89.5285 55.2682 85.4725C56.804 85.0393 59.9937 84.5274 65.94 84.9408C74.0915 85.5315 74.0718 98.9598 74.0718 99.137V126.21C74.0718 128.376 75.8438 130.148 78.0097 130.148C80.1755 130.148 81.9476 128.376 81.9476 126.21V99.1961C82.0461 91.9503 78.9351 78.0101 66.511 77.1044H66.4913Z" fill="#398938"/>
<path d="M115.184 85.4725C115.598 89.5482 115.775 94.8644 115.086 97.0893C114.436 99.1764 115.598 101.382 117.685 102.012C118.079 102.13 118.472 102.189 118.846 102.189C120.52 102.189 122.076 101.106 122.607 99.4127C123.296 97.1878 123.473 94.1162 123.434 91.1628C124.694 92.3048 125.62 93.3286 125.895 94.0178C126.703 96.0458 128.987 97.0303 130.995 96.2427C133.023 95.4354 134.007 93.1514 133.22 91.1431C132.235 88.6425 129.735 86.0829 127.175 83.9761C130.168 82.6569 133.102 81.0226 134.441 79.2702C135.76 77.5376 135.445 75.037 133.712 73.7375C131.979 72.4183 129.518 72.7333 128.219 74.466C127.805 74.8992 126.624 75.5686 125.049 76.2971C125.639 73.2255 125.895 69.7011 125.108 66.3736C124.596 64.2668 122.469 62.9476 120.363 63.4595C118.236 63.9714 116.937 66.0782 117.448 68.2047C118.138 71.1384 117.448 74.8795 116.582 77.7148C113.865 77.065 109.848 76.6909 103.961 77.1241C91.537 78.0298 88.426 91.97 88.5245 99.1567V126.23C88.5245 128.396 90.2965 130.168 92.4624 130.168C94.6282 130.168 96.4003 128.396 96.4003 126.23V99.1174C96.4003 98.9795 96.4003 85.5709 104.532 84.9605C110.478 84.5274 113.668 85.059 115.204 85.4922L115.184 85.4725Z" fill="#398938"/>
</g>
<defs>
<clipPath id="clip0_84_198">
<rect width="170" height="170" fill="white"/>
</clipPath>
</defs>
</svg>
